<svg width="237" height="40" viewBox="0 0 237 40" fill="none" xmlns="http://www.w3.org/2000/svg">
<path d="M199.575 16.225C202.99 15.6894 203.489 15.2303 202.635 13.4704C201.568 11.2515 201.888 11.328 189.649 11.4427C176.129 11.5958 176.093 11.5958 177.73 14.1208C179.118 16.225 191.854 17.4876 199.575 16.225Z" fill="#C4C4C4"/>
<path d="M101.711 11.7543C103.462 12.6448 103.672 12.6448 112.917 12.0392C116.279 11.8255 120.972 11.683 123.353 11.7543C131.583 12.0036 128.011 8.01402 119.431 7.37284C105.668 6.33982 95.8974 8.76207 101.711 11.7543Z" fill="#C4C4C4"/>
<path d="M218.81 12.2526C220.203 11.834 220.862 11.7503 221.063 11.7503C221.411 11.7503 222.932 16.8364 222.932 17.8829C222.932 17.9248 223.793 21.4621 227.182 15.7271C229.6 11.6456 230.68 10.1595 234.143 6.24552C237.403 2.56174 237.422 2.49895 236.414 1.72451C235.645 1.11753 234.875 1.0966 230.681 1.45242C226.999 1.76638 224.965 1.578 221.027 0.489611C218.169 -0.305752 217.693 -0.180168 218.206 1.22218C218.664 2.45709 220.221 8.38045 220.111 8.50603C219.891 8.7572 214.854 10.1386 212.362 10.6828C209.56 11.2898 211.74 13.2573 213.059 13.4038C214.249 13.4875 215.989 13.1108 218.81 12.2526Z" fill="#C4C4C4"/>
<path d="M143.046 12.782C150.47 14.2084 165 15.1697 165 14.2084C165 12.0688 163.26 11.3555 156.616 10.7664C142.904 9.55699 141.34 8.34761 140.132 10.2702C139.564 11.2315 140.879 12.3478 143.046 12.782Z" fill="#C4C4C4"/>
<path d="M4.41478 38.9136C10.5981 37.2417 23.1833 30.0724 21.9102 28.9672C20.2371 27.522 15.1082 29.0805 2.88714 34.7197C-2.53233 37.2134 0.668436 39.9054 4.41478 38.9136Z" fill="#C4C4C4"/>
<path d="M75.3379 13.084C77.2055 12.8187 80.7029 12.3942 83.1477 12.1554C87.9355 11.6778 88.2411 11.5717 87.9016 10.6961C86.9508 8.38785 66 9.05116 66 11.386C66 13.5085 68.8523 14.0126 75.3379 13.084Z" fill="#C4C4C4"/>
<path d="M38.0626 24.0777C39.2889 23.7425 48.4498 19.8034 52.2368 18.0713C54.7254 16.9259 54.7254 15.557 51.2991 15.6687C46.6465 15.8084 37.8823 18.6021 34.9248 20.837C32.3281 22.7647 35.7904 24.6923 38.0626 24.0777Z" fill="#C4C4C4"/>
</svg>
