<svg width="117" height="106" viewBox="0 0 117 106" fill="none" xmlns="http://www.w3.org/2000/svg">
<path d="M58.5 0.5C90.5325 0.5 116.5 26.4675 116.5 58.5C116.5 67.2409 114.565 75.5296 111.103 82.9629C97.4572 85.7208 80.8124 90.4637 69.7705 98.3408C56.0133 108.155 34.8779 105.933 21.3213 103.018C8.59545 92.3782 0.5 76.3848 0.5 58.5C0.5 26.4675 26.4675 0.5 58.5 0.5Z" fill="#00000000"/>
<path d="M111.103 82.9629L111.202 83.453C111.357 83.4215 111.489 83.318 111.556 83.174L111.103 82.9629ZM69.7705 98.3408L70.0609 98.7479V98.7479L69.7705 98.3408ZM21.3213 103.018L21.0006 103.401C21.0628 103.453 21.1368 103.489 21.2162 103.506L21.3213 103.018ZM53.9061 0.177743C53.6308 0.199132 53.425 0.439655 53.4464 0.714968C53.4678 0.990281 53.7083 1.19613 53.9836 1.17474L53.9449 0.676241L53.9061 0.177743ZM45.0707 2.57657C45.3392 2.51232 45.5048 2.24252 45.4406 1.97396C45.3763 1.70539 45.1065 1.53977 44.838 1.60402L44.9543 2.0903L45.0707 2.57657ZM36.1068 4.43921C35.8517 4.54499 35.7307 4.83752 35.8364 5.0926C35.9422 5.34768 36.2348 5.46871 36.4898 5.36293L36.2983 4.90107L36.1068 4.43921ZM28.4532 9.46547C28.6885 9.32097 28.7621 9.01307 28.6176 8.77775C28.4731 8.54244 28.1652 8.46882 27.9299 8.61332L28.1915 9.0394L28.4532 9.46547ZM20.5067 14.0153C20.2968 14.1948 20.2721 14.5104 20.4515 14.7203C20.631 14.9302 20.9466 14.9549 21.1565 14.7754L20.8316 14.3954L20.5067 14.0153ZM14.7754 21.1565C14.9549 20.9466 14.9302 20.631 14.7203 20.4515C14.5104 20.2721 14.1948 20.2968 14.0153 20.5067L14.3954 20.8316L14.7754 21.1565ZM8.61332 27.9299C8.46882 28.1652 8.54244 28.4731 8.77775 28.6176C9.01307 28.7621 9.32097 28.6885 9.46547 28.4532L9.0394 28.1915L8.61332 27.9299ZM5.36294 36.4898C5.46871 36.2347 5.34768 35.9422 5.0926 35.8364C4.83752 35.7307 4.54499 35.8517 4.43921 36.1068L4.90107 36.2983L5.36294 36.4898ZM1.60403 44.838C1.53977 45.1065 1.7054 45.3763 1.97396 45.4406C2.24252 45.5048 2.51232 45.3392 2.57658 45.0706L2.0903 44.9543L1.60403 44.838ZM1.17474 53.9836C1.19613 53.7083 0.990282 53.4678 0.714969 53.4464C0.439657 53.425 0.199133 53.6308 0.177744 53.9061L0.676242 53.9449L1.17474 53.9836ZM0.152993 62.7631C0.172833 63.0385 0.412195 63.2457 0.687624 63.2259C0.963053 63.206 1.17025 62.9667 1.15041 62.6912L0.651701 62.7272L0.152993 62.7631ZM2.35852 70.982C2.29884 70.7124 2.0319 70.5422 1.76228 70.6019C1.49266 70.6616 1.32247 70.9285 1.38215 71.1981L1.87034 71.0901L2.35852 70.982ZM3.83037 79.3635C3.92888 79.6214 4.21787 79.7507 4.47584 79.6522C4.73382 79.5537 4.86308 79.2647 4.76457 79.0067L4.29747 79.1851L3.83037 79.3635ZM8.31917 86.594C8.18404 86.3532 7.87928 86.2675 7.63845 86.4026C7.39763 86.5378 7.31195 86.8425 7.44707 87.0834L7.88312 86.8387L8.31917 86.594ZM12.1486 94.1939C12.3172 94.4125 12.6312 94.4531 12.8499 94.2845C13.0685 94.1158 13.1091 93.8018 12.9404 93.5832L12.5445 93.8885L12.1486 94.1939ZM18.5251 99.8301C18.3266 99.6381 18.0101 99.6433 17.8181 99.8418C17.6261 100.04 17.6314 100.357 17.8298 100.549L18.1775 100.189L18.5251 99.8301ZM25.3201 104.318C25.5919 104.367 25.8519 104.186 25.9009 103.914C25.9498 103.642 25.7692 103.382 25.4974 103.334L25.4088 103.826L25.3201 104.318ZM33.709 104.506C33.4344 104.477 33.1886 104.677 33.1602 104.952C33.1317 105.226 33.3313 105.472 33.606 105.501L33.6575 105.003L33.709 104.506ZM41.972 105.994C42.2481 105.997 42.4744 105.775 42.4774 105.499C42.4804 105.223 42.259 104.997 41.9829 104.994L41.9775 105.494L41.972 105.994ZM50.2453 104.612C49.9708 104.642 49.7726 104.889 49.8027 105.163C49.8327 105.438 50.0796 105.636 50.3541 105.606L50.2997 105.109L50.2453 104.612ZM58.6173 104.054C58.8834 103.98 59.0393 103.705 58.9655 103.438C58.8917 103.172 58.6162 103.016 58.3501 103.09L58.4837 103.572L58.6173 104.054ZM65.9917 100.087C65.7479 100.217 65.6553 100.52 65.7849 100.763C65.9146 101.007 66.2173 101.1 66.4611 100.97L66.2264 100.529L65.9917 100.087ZM74.6974 95.7979C74.9372 95.661 75.0207 95.3556 74.8838 95.1158C74.747 94.876 74.4416 94.7925 74.2018 94.9294L74.4496 95.3636L74.6974 95.7979ZM84.2773 90.1313C84.021 90.234 83.8965 90.5251 83.9993 90.7814C84.102 91.0377 84.3931 91.1622 84.6494 91.0595L84.4634 90.5954L84.2773 90.1313ZM95.0911 87.4402C95.3556 87.3608 95.5056 87.0821 95.4263 86.8176C95.3469 86.5531 95.0681 86.403 94.8036 86.4824L94.9474 86.9613L95.0911 87.4402ZM105.567 83.6472C105.298 83.7092 105.13 83.9776 105.192 84.2467C105.254 84.5158 105.522 84.6836 105.791 84.6216L105.679 84.1344L105.567 83.6472ZM113.924 77.2666C114.012 77.005 113.872 76.7212 113.61 76.6326C113.349 76.5441 113.065 76.6843 112.977 76.9459L113.45 77.1062L113.924 77.2666ZM115.664 64.7472C115.635 65.0217 115.833 65.2683 116.108 65.298C116.382 65.3277 116.629 65.1292 116.659 64.8546L116.162 64.8009L115.664 64.7472ZM116.822 53.9061C116.801 53.6308 116.56 53.425 116.285 53.4464C116.01 53.4678 115.804 53.7083 115.825 53.9836L116.324 53.9449L116.822 53.9061ZM114.423 45.0707C114.488 45.3392 114.757 45.5048 115.026 45.4406C115.295 45.3763 115.46 45.1065 115.396 44.838L114.91 44.9543L114.423 45.0707ZM112.561 36.1068C112.455 35.8517 112.162 35.7307 111.907 35.8364C111.652 35.9422 111.531 36.2348 111.637 36.4898L112.099 36.2983L112.561 36.1068ZM107.535 28.4532C107.679 28.6885 107.987 28.7621 108.222 28.6176C108.458 28.4731 108.531 28.1652 108.387 27.9299L107.961 28.1915L107.535 28.4532ZM102.985 20.5067C102.805 20.2968 102.49 20.2721 102.28 20.4515C102.07 20.631 102.045 20.9466 102.225 21.1565L102.605 20.8316L102.985 20.5067ZM95.8435 14.7754C96.0534 14.9549 96.369 14.9302 96.5485 14.7203C96.7279 14.5104 96.7032 14.1948 96.4933 14.0153L96.1684 14.3954L95.8435 14.7754ZM89.0701 8.61332C88.8348 8.46882 88.5269 8.54244 88.3824 8.77775C88.2379 9.01307 88.3115 9.32097 88.5468 9.46547L88.8085 9.0394L89.0701 8.61332ZM80.5102 5.36294C80.7653 5.46871 81.0578 5.34768 81.1636 5.0926C81.2693 4.83752 81.1483 4.54499 80.8932 4.43921L80.7017 4.90107L80.5102 5.36294ZM72.162 1.60403C71.8935 1.53977 71.6237 1.7054 71.5594 1.97396C71.4952 2.24252 71.6608 2.51232 71.9294 2.57658L72.0457 2.0903L72.162 1.60403ZM63.0164 1.17474C63.2917 1.19613 63.5322 0.990282 63.5536 0.714969C63.575 0.439657 63.3692 0.199133 63.0939 0.177744L63.0551 0.676242L63.0164 1.17474ZM58.5 0.5V0C56.9541 0 55.422 0.0599763 53.9061 0.177743L53.9449 0.676241L53.9836 1.17474C55.4738 1.05897 56.9799 1 58.5 1V0.5ZM44.9543 2.0903L44.838 1.60402C41.8307 2.32353 38.9136 3.27527 36.1068 4.43921L36.2983 4.90107L36.4898 5.36293C39.2483 4.21903 42.1152 3.28369 45.0707 2.57657L44.9543 2.0903ZM28.1915 9.0394L27.9299 8.61332C25.3121 10.2209 22.8306 12.0287 20.5067 14.0153L20.8316 14.3954L21.1565 14.7754C23.4409 12.8225 25.8801 11.0456 28.4532 9.46547L28.1915 9.0394ZM14.3954 20.8316L14.0153 20.5067C12.0287 22.8306 10.2209 25.3121 8.61332 27.9299L9.0394 28.1915L9.46547 28.4532C11.0456 25.8801 12.8225 23.4409 14.7754 21.1565L14.3954 20.8316ZM4.90107 36.2983L4.43921 36.1068C3.27527 38.9136 2.32353 41.8307 1.60403 44.838L2.0903 44.9543L2.57658 45.0706C3.28369 42.1151 4.21903 39.2483 5.36294 36.4898L4.90107 36.2983ZM0.676242 53.9449L0.177744 53.9061C0.0599767 55.422 0 56.9541 0 58.5H0.5H1C1 56.9799 1.05897 55.4738 1.17474 53.9836L0.676242 53.9449ZM0.5 58.5H0C0 59.9336 0.0515787 61.3552 0.152993 62.7631L0.651701 62.7272L1.15041 62.6912C1.05072 61.3072 1 59.9096 1 58.5H0.5ZM1.87034 71.0901L1.38215 71.1981C2.00251 74.0007 2.82388 76.7278 3.83037 79.3635L4.29747 79.1851L4.76457 79.0067C3.77542 76.4165 2.9682 73.7364 2.35852 70.982L1.87034 71.0901ZM7.88312 86.8387L7.44707 87.0834C8.84329 89.5717 10.4161 91.9475 12.1486 94.1939L12.5445 93.8885L12.9404 93.5832C11.2375 91.3751 9.69149 89.0398 8.31917 86.594L7.88312 86.8387ZM18.1775 100.189L17.8298 100.549C18.8515 101.537 19.9092 102.489 21.0006 103.401L21.3213 103.018L21.642 102.634C20.5691 101.737 19.5295 100.802 18.5251 99.8301L18.1775 100.189ZM21.3213 103.018L21.2162 103.506C22.5187 103.786 23.8911 104.06 25.3201 104.318L25.4088 103.826L25.4974 103.334C24.0801 103.078 22.7188 102.807 21.4264 102.529L21.3213 103.018ZM33.6575 105.003L33.606 105.501C36.3198 105.782 39.1303 105.963 41.972 105.994L41.9775 105.494L41.9829 104.994C39.176 104.963 36.3966 104.784 33.709 104.506L33.6575 105.003ZM50.2997 105.109L50.3541 105.606C53.1589 105.299 55.9346 104.798 58.6173 104.054L58.4837 103.572L58.3501 103.09C55.7266 103.818 53.0047 104.31 50.2453 104.612L50.2997 105.109ZM66.2264 100.529L66.4611 100.97C67.7053 100.309 68.9082 99.5702 70.0609 98.7479L69.7705 98.3408L69.4801 97.9338C68.3648 98.7294 67.1993 99.4452 65.9917 100.087L66.2264 100.529ZM69.7705 98.3408L70.0609 98.7479C71.513 97.7119 73.065 96.7294 74.6974 95.7979L74.4496 95.3636L74.2018 94.9294C72.5437 95.8755 70.9629 96.876 69.4801 97.9338L69.7705 98.3408ZM84.4634 90.5954L84.6494 91.0595C88.0338 89.7028 91.5545 88.5016 95.0911 87.4402L94.9474 86.9613L94.8036 86.4824C91.2437 87.5508 87.6942 88.7616 84.2773 90.1313L84.4634 90.5954ZM105.679 84.1344L105.791 84.6216C107.632 84.1974 109.442 83.8087 111.202 83.453L111.103 82.9629L111.003 82.4728C109.236 82.8301 107.417 83.2208 105.567 83.6472L105.679 84.1344ZM111.103 82.9629L111.556 83.174C112.448 81.2589 113.239 79.2875 113.924 77.2666L113.45 77.1062L112.977 76.9459C112.304 78.932 111.526 80.8695 110.649 82.7518L111.103 82.9629ZM116.162 64.8009L116.659 64.8546C116.884 62.7672 117 60.6471 117 58.5H116.5H116C116 60.6111 115.886 62.6954 115.664 64.7472L116.162 64.8009ZM116.5 58.5H117C117 56.9541 116.94 55.422 116.822 53.9061L116.324 53.9449L115.825 53.9836C115.941 55.4738 116 56.9799 116 58.5H116.5ZM114.91 44.9543L115.396 44.838C114.676 41.8307 113.725 38.9136 112.561 36.1068L112.099 36.2983L111.637 36.4898C112.781 39.2483 113.716 42.1152 114.423 45.0707L114.91 44.9543ZM107.961 28.1915L108.387 27.9299C106.779 25.3121 104.971 22.8306 102.985 20.5067L102.605 20.8316L102.225 21.1565C104.177 23.4409 105.954 25.8801 107.535 28.4532L107.961 28.1915ZM96.1684 14.3954L96.4933 14.0153C94.1694 12.0287 91.6879 10.2209 89.0701 8.61332L88.8085 9.0394L88.5468 9.46547C91.1199 11.0456 93.5591 12.8225 95.8435 14.7754L96.1684 14.3954ZM80.7017 4.90107L80.8932 4.43921C78.0864 3.27527 75.1693 2.32353 72.162 1.60403L72.0457 2.0903L71.9294 2.57658C74.8849 3.28369 77.7517 4.21903 80.5102 5.36294L80.7017 4.90107ZM63.0551 0.676242L63.0939 0.177744C61.578 0.0599767 60.0459 0 58.5 0V0.5V1C60.0201 1 61.5262 1.05897 63.0164 1.17474L63.0551 0.676242Z" fill="#0074E4"/>
<mask id="mask0_448_98" style="mask-type:luminance" maskUnits="userSpaceOnUse" x="0" y="0" width="117" height="106">
<mask id="path-3-inside-1_448_98" fill="white">
<path d="M58.5 0.5C90.5325 0.5 116.5 26.4675 116.5 58.5C116.5 67.2409 114.565 75.5296 111.103 82.9629C97.4572 85.7208 80.8124 90.4637 69.7705 98.3408C56.0133 108.155 34.8779 105.933 21.3213 103.018C8.59545 92.3782 0.5 76.3848 0.5 58.5C0.5 26.4675 26.4675 0.5 58.5 0.5Z"/>
</mask>
<path d="M58.5 0.5C90.5325 0.5 116.5 26.4675 116.5 58.5C116.5 67.2409 114.565 75.5296 111.103 82.9629C97.4572 85.7208 80.8124 90.4637 69.7705 98.3408C56.0133 108.155 34.8779 105.933 21.3213 103.018C8.59545 92.3782 0.5 76.3848 0.5 58.5C0.5 26.4675 26.4675 0.5 58.5 0.5Z" fill="white"/>
<path d="M111.103 82.9629L111.301 83.9431L111.796 83.843L112.009 83.3852L111.103 82.9629ZM69.7705 98.3408L70.3513 99.1549V99.1549L69.7705 98.3408ZM21.3213 103.018L20.6799 103.785L20.8695 103.943L21.1111 103.995L21.3213 103.018ZM58.5 0.5V1.5C89.9802 1.5 115.5 27.0198 115.5 58.5H116.5H117.5C117.5 25.9152 91.0848 -0.5 58.5 -0.5V0.5ZM116.5 58.5H115.5C115.5 67.0919 113.599 75.2368 110.196 82.5406L111.103 82.9629L112.009 83.3852C115.532 75.8225 117.5 67.3899 117.5 58.5H116.5ZM111.103 82.9629L110.904 81.9827C97.24 84.7445 80.415 89.5188 69.1898 97.5267L69.7705 98.3408L70.3513 99.1549C81.2098 91.4086 97.6745 86.6971 111.301 83.9431L111.103 82.9629ZM69.7705 98.3408L69.1898 97.5267C62.5331 102.275 54.031 104.15 45.4354 104.453C36.8495 104.756 28.2647 103.488 21.5315 102.04L21.3213 103.018L21.1111 103.995C27.9345 105.463 36.6957 106.763 45.5059 106.452C54.3065 106.142 63.2508 104.22 70.3513 99.1549L69.7705 98.3408ZM21.3213 103.018L21.9627 102.25C9.45436 91.7929 1.5 76.076 1.5 58.5H0.5H-0.5C-0.5 76.6935 7.73653 92.9636 20.6799 103.785L21.3213 103.018ZM0.5 58.5H1.5C1.5 27.0198 27.0198 1.5 58.5 1.5V0.5V-0.5C25.9152 -0.5 -0.5 25.9152 -0.5 58.5H0.5Z" fill="white" mask="url(#path-3-inside-1_448_98)"/>
</mask>
<g mask="url(#mask0_448_98)">
</g>
</svg>
