<svg width="48" height="48" viewBox="0 0 48 48" fill="none" xmlns="http://www.w3.org/2000/svg">
<path d="M19.1827 0.01796C11.2578 0.353548 6.02193 4.92473 3.37466 8.88745C-1.68529 16.461 -0.97785 26.4313 4.97763 33.1864C5.31625 33.5261 5.33438 33.8905 5.21949 34.0959C5.05013 34.3841 4.55677 35.3653 2.28802 37.0836C0.994006 37.9799 1.63616 40.0102 3.21016 39.9995H16.787C19.8581 44.934 25.247 47.997 31.1045 47.997C31.7781 48.0037 46.3975 47.997 46.3975 47.997C47.9563 47.9945 48.5912 45.9912 47.319 45.0905C47.319 45.0905 45.3272 43.7364 44.379 42.0934C44.2339 41.8379 44.2702 41.6926 44.5121 41.3778C47.443 37.5504 48.6082 32.6457 47.6964 27.9047C46.7803 23.1443 43.8561 19.0103 39.6874 16.5475C38.5276 9.96932 34.1177 4.1928 27.6537 1.51499C24.9025 0.375089 22.0139 -0.101929 19.1827 0.01796ZM19.3097 3.20884C21.6855 3.11286 24.1084 3.52116 26.4243 4.48085C33.8371 7.55178 38.042 15.4025 36.4771 23.2731C34.9116 31.1436 28.0237 36.7992 20.0003 36.7992H7.24458C7.71621 36.2209 8.10746 35.6455 8.36685 34.849C8.69939 33.8242 8.80832 32.5617 8.11894 31.8738C2.44584 26.1994 1.57088 17.3318 6.02856 10.6595C10.0799 4.59578 16.6866 3.20884 19.3097 3.20884ZM39.9861 20.6572C42.3334 22.6583 43.9618 25.4288 44.5544 28.5079C45.306 32.4134 44.3185 36.4497 41.8611 39.5745C41.0581 40.6155 40.8617 41.4489 41.236 42.8466C41.4959 43.6382 41.8745 44.2211 42.3455 44.7968H31.1021C27.0435 44.7968 23.2728 42.9839 20.6999 39.9682C29.9291 39.6455 37.8038 33.0191 39.6173 23.9012C39.8954 22.4913 39.9861 20.6572 39.9861 20.6572Z" fill="#0074E4"/>
<path d="M19.7769 27.9282C18.893 27.9247 18.1737 28.6388 18.1707 29.5228C18.1672 30.4115 18.8883 31.1328 19.7769 31.1293C20.6608 31.1262 21.3747 30.4069 21.3713 29.5228C21.3682 28.6434 20.6561 27.9312 19.7769 27.9282ZM19.7755 9.59668C16.1547 9.59668 13.1854 12.5665 13.1854 16.1879C13.1819 17.0728 13.8973 17.7925 14.7821 17.7942C15.6706 17.7978 16.3917 17.0765 16.3883 16.1879C16.3883 14.296 17.8839 12.797 19.7755 12.797C21.667 12.797 23.1659 14.296 23.1659 16.1879C23.1659 18.0797 21.667 19.5757 19.7755 19.5757C18.8871 19.5721 18.1659 20.2934 18.1694 21.182V24.0761C18.1659 24.9647 18.887 25.6859 19.7755 25.6824C20.6594 25.6794 21.3757 24.9601 21.3723 24.0761C21.3723 23.1829 21.996 22.4297 22.7893 22.0191C24.906 20.9234 26.3656 18.7231 26.3656 16.1879C26.3656 12.5665 23.3963 9.59668 19.7755 9.59668Z" fill="#0074E4"/>
</svg>
