<svg width="15" height="24" viewBox="0 0 15 24" fill="none" xmlns="http://www.w3.org/2000/svg">
<path d="M3.56983 0C2.94873 0 2.44483 0.50391 2.44483 1.125V21H1.125C0.503902 21 0 21.5039 0 22.125C0 22.7461 0.50391 23.25 1.125 23.25H6.01391C6.63501 23.25 7.13891 22.7461 7.13891 22.125C7.13891 21.5039 6.635 21 6.01391 21H4.69483V13.7049L13.9211 8.60669C14.2793 8.40893 14.502 8.03174 14.502 7.62231C14.502 7.21289 14.2793 6.83569 13.9211 6.63794L4.69483 1.53969V1.125C4.69483 0.50391 4.19092 0 3.56983 0ZM11.0508 7.62232L4.69483 11.1343V4.11035L11.0508 7.62232Z" fill="#1D1D1D"/>
</svg>
