<svg width="50" height="65" viewBox="0 0 50 65" fill="none" xmlns="http://www.w3.org/2000/svg">
<path d="M42.0277 2.82613C43.4054 2.82613 44.7266 3.38292 45.7008 4.37401C46.6749 5.3651 47.2222 6.7093 47.2222 8.11091V56.8891C47.2222 58.2907 46.6749 59.6349 45.7008 60.626C44.7266 61.6171 43.4054 62.1739 42.0277 62.1739H7.97226C6.59461 62.1739 5.27338 61.6171 4.29924 60.626C3.32509 59.6349 2.77782 58.2907 2.77782 56.8891V8.11091C2.77782 6.7093 3.32509 5.3651 4.29924 4.37401C5.27338 3.38292 6.59461 2.82613 7.97226 2.82613H42.0277ZM42.0277 4.95853e-05H7.97226C6.9243 -0.00368488 5.88598 0.203559 4.91709 0.609845C3.9482 1.01613 3.06789 1.61343 2.32687 2.36734C1.58585 3.12124 0.998761 4.01686 0.59942 5.0026C0.200079 5.98834 -0.00362189 7.04473 4.87376e-05 8.11091V56.8891C-0.00362189 57.9553 0.200079 59.0117 0.59942 59.9974C0.998761 60.9831 1.58585 61.8788 2.32687 62.6327C3.06789 63.3866 3.9482 63.9839 4.91709 64.3902C5.88598 64.7964 6.9243 65.0037 7.97226 65H42.0277C43.0757 65.0037 44.114 64.7964 45.0829 64.3902C46.0518 63.9839 46.9321 63.3866 47.6731 62.6327C48.4141 61.8788 49.0012 60.9831 49.4006 59.9974C49.7999 59.0117 50.0036 57.9553 50 56.8891V8.11091C50.0036 7.04473 49.7999 5.98834 49.4006 5.0026C49.0012 4.01686 48.4141 3.12124 47.6731 2.36734C46.9321 1.61343 46.0518 1.01613 45.0829 0.609845C44.114 0.203559 43.0757 -0.00368488 42.0277 4.95853e-05Z" fill="#0074E4"/>
<path d="M10 9.5H40" stroke="#0074E4" stroke-width="3" stroke-linecap="round" stroke-linejoin="round"/>
<path d="M10 14.5H40" stroke="#0074E4" stroke-width="3" stroke-linecap="round" stroke-linejoin="round"/>
<path d="M24.4318 51.7727V19.0455H26.5284V51.7727H24.4318ZM31.4886 28.8636C31.3352 27.5682 30.7131 26.5625 29.6222 25.8466C28.5313 25.1307 27.1932 24.7727 25.608 24.7727C24.4489 24.7727 23.4347 24.9602 22.5653 25.3352C21.7045 25.7102 21.0313 26.2259 20.5455 26.8821C20.0682 27.5384 19.8295 28.2841 19.8295 29.1193C19.8295 29.8182 19.9957 30.419 20.3281 30.9219C20.669 31.4162 21.1037 31.8295 21.6321 32.1619C22.1605 32.4858 22.7145 32.7543 23.294 32.9673C23.8736 33.1719 24.4062 33.3381 24.892 33.4659L27.5511 34.1818C28.233 34.3608 28.9915 34.608 29.8267 34.9233C30.6705 35.2386 31.4759 35.669 32.2429 36.2145C33.0185 36.7514 33.6577 37.4418 34.1605 38.2855C34.6634 39.1293 34.9148 40.1648 34.9148 41.392C34.9148 42.8068 34.544 44.0852 33.8026 45.2273C33.0696 46.3693 31.9957 47.277 30.581 47.9503C29.1747 48.6236 27.4659 48.9602 25.4545 48.9602C23.5795 48.9602 21.956 48.6577 20.5838 48.0526C19.2202 47.4474 18.1463 46.6037 17.3622 45.5213C16.5866 44.4389 16.1477 43.1818 16.0455 41.75H19.3182C19.4034 42.7386 19.7358 43.5568 20.3153 44.2045C20.9034 44.8437 21.6449 45.321 22.5398 45.6364C23.4432 45.9432 24.4148 46.0966 25.4545 46.0966C26.6648 46.0966 27.7514 45.9006 28.7145 45.5085C29.6776 45.108 30.4403 44.554 31.0028 43.8466C31.5653 43.1307 31.8466 42.2955 31.8466 41.3409C31.8466 40.4716 31.6037 39.7642 31.1179 39.2188C30.6321 38.6733 29.9929 38.2301 29.2003 37.8892C28.4077 37.5483 27.5511 37.25 26.6307 36.9943L23.4091 36.0739C21.3636 35.4858 19.7443 34.6463 18.5511 33.5554C17.358 32.4645 16.7614 31.0369 16.7614 29.2727C16.7614 27.8068 17.1577 26.5284 17.9503 25.4375C18.7514 24.3381 19.8253 23.4858 21.1719 22.8807C22.527 22.267 24.0398 21.9602 25.7102 21.9602C27.3977 21.9602 28.8977 22.2628 30.2102 22.8679C31.5227 23.4645 32.5625 24.2827 33.3295 25.3224C34.1051 26.3622 34.5142 27.5426 34.5568 28.8636H31.4886Z" fill="#0074E4"/>
<path d="M24.4318 51.7727H23.9318V52.2727H24.4318V51.7727ZM24.4318 19.0455V18.5455H23.9318V19.0455H24.4318ZM26.5284 19.0455H27.0284V18.5455H26.5284V19.0455ZM26.5284 51.7727V52.2727H27.0284V51.7727H26.5284ZM31.4886 28.8636L30.9921 28.9224L31.0444 29.3636H31.4886V28.8636ZM29.6222 25.8466L29.3478 26.2646V26.2646L29.6222 25.8466ZM22.5653 25.3352L22.3673 24.8761L22.3656 24.8768L22.5653 25.3352ZM20.5455 26.8821L20.1436 26.5846L20.1411 26.588L20.5455 26.8821ZM20.3281 30.9219L19.9109 31.1976L19.9165 31.2057L20.3281 30.9219ZM21.6321 32.1619L21.3659 32.5852L21.3708 32.5882L21.6321 32.1619ZM23.294 32.9673L23.1215 33.4367L23.1276 33.4388L23.294 32.9673ZM24.892 33.4659L25.022 32.9831L25.0193 32.9824L24.892 33.4659ZM27.5511 34.1818L27.4211 34.6646L27.4242 34.6654L27.5511 34.1818ZM29.8267 34.9233L29.6501 35.3911L29.6517 35.3917L29.8267 34.9233ZM32.2429 36.2145L31.9531 36.622L31.9583 36.6256L32.2429 36.2145ZM34.1605 38.2855L34.59 38.0295V38.0295L34.1605 38.2855ZM33.8026 45.2273L33.3832 44.955L33.3818 44.9572L33.8026 45.2273ZM30.581 47.9503L30.3661 47.4988L30.365 47.4993L30.581 47.9503ZM20.5838 48.0526L20.381 48.5096L20.3821 48.51L20.5838 48.0526ZM17.3622 45.5213L16.9558 45.8125L16.9573 45.8146L17.3622 45.5213ZM16.0455 41.75V41.25H15.5085L15.5467 41.7856L16.0455 41.75ZM19.3182 41.75L19.8163 41.7071L19.7769 41.25H19.3182V41.75ZM20.3153 44.2045L19.9427 44.538L19.9474 44.5431L20.3153 44.2045ZM22.5398 45.6364L22.3736 46.108L22.379 46.1098L22.5398 45.6364ZM28.7145 45.5085L28.903 45.9716L28.9065 45.9702L28.7145 45.5085ZM31.0028 43.8466L31.3942 44.1578L31.396 44.1555L31.0028 43.8466ZM31.1179 39.2188L31.4913 38.8862V38.8862L31.1179 39.2188ZM29.2003 37.8892L29.0027 38.3485H29.0027L29.2003 37.8892ZM26.6307 36.9943L26.4933 37.4751L26.4969 37.4761L26.6307 36.9943ZM23.4091 36.0739L23.2709 36.5544L23.2717 36.5546L23.4091 36.0739ZM18.5511 33.5554L18.2138 33.9244V33.9244L18.5511 33.5554ZM17.9503 25.4375L17.5462 25.143L17.5458 25.1436L17.9503 25.4375ZM21.1719 22.8807L21.3768 23.3368L21.3781 23.3362L21.1719 22.8807ZM30.2102 22.8679L30.0009 23.322L30.0033 23.3231L30.2102 22.8679ZM33.3295 25.3224L32.9272 25.6193L32.9288 25.6214L33.3295 25.3224ZM34.5568 28.8636V29.3636H35.0732L35.0566 28.8475L34.5568 28.8636ZM24.4318 51.7727H24.9318V19.0455H24.4318H23.9318V51.7727H24.4318ZM24.4318 19.0455V19.5455H26.5284V19.0455V18.5455H24.4318V19.0455ZM26.5284 19.0455H26.0284V51.7727H26.5284H27.0284V19.0455H26.5284ZM26.5284 51.7727V51.2727H24.4318V51.7727V52.2727H26.5284V51.7727ZM31.4886 28.8636L31.9852 28.8048C31.8144 27.3627 31.1109 26.2255 29.8965 25.4286L29.6222 25.8466L29.3478 26.2646C30.3153 26.8995 30.8561 27.7737 30.9921 28.9224L31.4886 28.8636ZM29.6222 25.8466L29.8965 25.4286C28.708 24.6486 27.2695 24.2727 25.608 24.2727V24.7727V25.2727C27.1168 25.2727 28.3545 25.6127 29.3478 26.2646L29.6222 25.8466ZM25.608 24.7727V24.2727C24.3956 24.2727 23.3115 24.4688 22.3673 24.8761L22.5653 25.3352L22.7634 25.7943C23.5578 25.4516 24.5021 25.2727 25.608 25.2727V24.7727ZM22.5653 25.3352L22.3656 24.8768C21.4367 25.2815 20.6889 25.848 20.1436 26.5846L20.5455 26.8821L20.9473 27.1796C21.3736 26.6037 21.9724 26.1389 22.765 25.7936L22.5653 25.3352ZM20.5455 26.8821L20.1411 26.588C19.5997 27.3324 19.3295 28.1817 19.3295 29.1193H19.8295H20.3295C20.3295 28.3864 20.5366 27.7443 20.9498 27.1762L20.5455 26.8821ZM19.8295 29.1193H19.3295C19.3295 29.9002 19.5164 30.6005 19.911 31.1976L20.3281 30.9219L20.7452 30.6462C20.4751 30.2375 20.3295 29.7362 20.3295 29.1193H19.8295ZM20.3281 30.9219L19.9165 31.2057C20.2975 31.7581 20.7824 32.2181 21.3659 32.5852L21.6321 32.1619L21.8983 31.7387C21.425 31.441 21.0406 31.0743 20.7397 30.638L20.3281 30.9219ZM21.6321 32.1619L21.3708 32.5882C21.9272 32.9292 22.5109 33.2121 23.1215 33.4366L23.294 32.9673L23.4666 32.498C22.9181 32.2964 22.3938 32.0423 21.8934 31.7356L21.6321 32.1619ZM23.294 32.9673L23.1276 33.4388C23.7173 33.647 24.2633 33.8175 24.7648 33.9494L24.892 33.4659L25.0193 32.9824C24.5492 32.8587 24.0298 32.6968 23.4604 32.4958L23.294 32.9673ZM24.892 33.4659L24.7621 33.9487L27.4212 34.6646L27.5511 34.1818L27.6811 33.699L25.022 32.9831L24.892 33.4659ZM27.5511 34.1818L27.4242 34.6654C28.0855 34.839 28.8271 35.0803 29.6501 35.3911L29.8267 34.9233L30.0033 34.4555C29.1559 34.1356 28.3805 33.8826 27.6781 33.6982L27.5511 34.1818ZM29.8267 34.9233L29.6517 35.3917C30.4529 35.6911 31.2199 36.1006 31.9531 36.622L32.2429 36.2145L32.5327 35.807C31.7318 35.2375 30.888 34.7862 30.0017 34.4549L29.8267 34.9233ZM32.2429 36.2145L31.9583 36.6256C32.6726 37.1201 33.2633 37.7566 33.731 38.5415L34.1605 38.2855L34.59 38.0295C34.0521 37.1269 33.3644 36.3828 32.5275 35.8034L32.2429 36.2145ZM34.1605 38.2855L33.731 38.5415C34.1775 39.2907 34.4148 40.2326 34.4148 41.392H34.9148H35.4148C35.4148 40.0969 35.1492 38.9678 34.59 38.0295L34.1605 38.2855ZM34.9148 41.392H34.4148C34.4148 42.7142 34.0699 43.8973 33.3832 44.955L33.8026 45.2273L34.2219 45.4995C35.0182 44.2732 35.4148 42.8995 35.4148 41.392H34.9148ZM33.8026 45.2273L33.3818 44.9572C32.7066 46.0092 31.7099 46.8593 30.3661 47.4988L30.581 47.9503L30.7958 48.4018C32.2815 47.6947 33.4326 46.7294 34.2234 45.4973L33.8026 45.2273ZM30.581 47.9503L30.365 47.4993C29.0428 48.1324 27.4121 48.4602 25.4545 48.4602V48.9602V49.4602C27.5197 49.4602 29.3066 49.1148 30.7969 48.4013L30.581 47.9503ZM25.4545 48.9602V48.4602C23.6322 48.4602 22.0804 48.1661 20.7856 47.5951L20.5838 48.0526L20.3821 48.51C21.8316 49.1493 23.5269 49.4602 25.4545 49.4602V48.9602ZM20.5838 48.0526L20.7866 47.5955C19.494 47.0219 18.4936 46.2309 17.7671 45.228L17.3622 45.5213L16.9573 45.8146C17.799 46.9765 18.9463 47.8729 20.381 48.5096L20.5838 48.0526ZM17.3622 45.5213L17.7686 45.2301C17.0511 44.2286 16.6404 43.0616 16.5442 41.7144L16.0455 41.75L15.5467 41.7856C15.655 43.3021 16.1222 44.6492 16.9558 45.8125L17.3622 45.5213ZM16.0455 41.75V42.25H19.3182V41.75V41.25H16.0455V41.75ZM19.3182 41.75L18.82 41.7929C18.9132 42.8735 19.281 43.7984 19.9427 44.5379L20.3153 44.2045L20.688 43.8711C20.1906 43.3153 19.8936 42.6038 19.8163 41.7071L19.3182 41.75ZM20.3153 44.2045L19.9474 44.5431C20.5958 45.2479 21.4089 45.768 22.3736 46.1079L22.5398 45.6364L22.7059 45.1648C21.8809 44.8741 21.211 44.4396 20.6833 43.866L20.3153 44.2045ZM22.5398 45.6364L22.379 46.1098C23.3386 46.4357 24.365 46.5966 25.4545 46.5966V46.0966V45.5966C24.4646 45.5966 23.5477 45.4506 22.7006 45.1629L22.5398 45.6364ZM25.4545 46.0966V46.5966C26.719 46.5966 27.8711 46.3917 28.903 45.9716L28.7145 45.5085L28.526 45.0454C27.6317 45.4094 26.6106 45.5966 25.4545 45.5966V46.0966ZM28.7145 45.5085L28.9065 45.9702C29.9355 45.5422 30.7714 44.941 31.3942 44.1578L31.0028 43.8466L30.6115 43.5354C30.1093 44.167 29.4196 44.6737 28.5225 45.0469L28.7145 45.5085ZM31.0028 43.8466L31.396 44.1555C32.0312 43.347 32.3466 42.4017 32.3466 41.3409H31.8466H31.3466C31.3466 42.1893 31.0994 42.9143 30.6097 43.5377L31.0028 43.8466ZM31.8466 41.3409H32.3466C32.3466 40.3736 32.0736 39.5401 31.4913 38.8862L31.1179 39.2188L30.7445 39.5513C31.1338 39.9883 31.3466 40.5696 31.3466 41.3409H31.8466ZM31.1179 39.2188L31.4913 38.8862C30.9488 38.2771 30.2456 37.7945 29.3978 37.4299L29.2003 37.8892L29.0027 38.3485C29.7402 38.6657 30.3154 39.0695 30.7445 39.5513L31.1179 39.2188ZM29.2003 37.8892L29.3978 37.4299C28.5825 37.0792 27.7044 36.7736 26.7645 36.5126L26.6307 36.9943L26.4969 37.4761C27.3979 37.7264 28.2329 38.0174 29.0027 38.3485L29.2003 37.8892ZM26.6307 36.9943L26.768 36.5136L23.5465 35.5931L23.4091 36.0739L23.2717 36.5546L26.4933 37.4751L26.6307 36.9943ZM23.4091 36.0739L23.5472 35.5933C21.5534 35.0201 20.0097 34.2115 18.8885 33.1864L18.5511 33.5554L18.2138 33.9244C19.4789 35.0811 21.1739 35.9515 23.2709 36.5544L23.4091 36.0739ZM18.5511 33.5554L18.8885 33.1864C17.8091 32.1994 17.2614 30.9109 17.2614 29.2727H16.7614H16.2614C16.2614 31.163 16.9069 32.7295 18.2138 33.9244L18.5511 33.5554ZM16.7614 29.2727H17.2614C17.2614 27.9027 17.6297 26.7294 18.3548 25.7314L17.9503 25.4375L17.5458 25.1436C16.6856 26.3275 16.2614 27.7109 16.2614 29.2727H16.7614ZM17.9503 25.4375L18.3544 25.732C19.1 24.7087 20.1026 23.9094 21.3768 23.3367L21.1719 22.8807L20.9669 22.4246C19.548 23.0622 18.4028 23.9674 17.5462 25.143L17.9503 25.4375ZM21.1719 22.8807L21.3781 23.3362C22.6609 22.7553 24.1021 22.4602 25.7102 22.4602V21.9602V21.4602C23.9774 21.4602 22.3931 21.7788 20.9656 22.4252L21.1719 22.8807ZM25.7102 21.9602V22.4602C27.3375 22.4602 28.7641 22.7518 30.0009 23.322L30.2102 22.8679L30.4196 22.4138C29.0313 21.7738 27.458 21.4602 25.7102 21.4602V21.9602ZM30.2102 22.8679L30.0033 23.3231C31.2474 23.8886 32.2164 24.6557 32.9272 25.6193L33.3295 25.3224L33.7319 25.0256C32.9086 23.9096 31.798 23.0404 30.4171 22.4127L30.2102 22.8679ZM33.3295 25.3224L32.9288 25.6214C33.642 26.5776 34.0177 27.6588 34.0571 28.8798L34.5568 28.8636L35.0566 28.8475C35.0107 27.4264 34.5682 26.1469 33.7303 25.0235L33.3295 25.3224ZM34.5568 28.8636V28.3636H31.4886V28.8636V29.3636H34.5568V28.8636Z" fill="#0074E4"/>
</svg>
