<svg width="55" height="72" viewBox="0 0 55 72" fill="none" xmlns="http://www.w3.org/2000/svg">
<path d="M43.0294 2H6.97059C3.12084 2 0 4.89387 0 8.46364V55.5364C0 59.1061 3.12084 62 6.97059 62H43.0294C46.8792 62 50 59.1061 50 55.5364V8.46364C50 4.89387 46.8792 2 43.0294 2Z" fill="#00000000"/>
<path d="M42.0277 2.82613C43.4054 2.82613 44.7266 3.38292 45.7008 4.37401C46.6749 5.36509 47.2222 6.7093 47.2222 8.11091V56.8891C47.2222 58.2907 46.6749 59.6349 45.7008 60.626C44.7266 61.6171 43.4054 62.1739 42.0277 62.1739H7.97226C6.59461 62.1739 5.27338 61.6171 4.29924 60.626C3.32509 59.6349 2.77782 58.2907 2.77782 56.8891V8.11091C2.77782 6.7093 3.32509 5.36509 4.29924 4.37401C5.27338 3.38292 6.59461 2.82613 7.97226 2.82613H42.0277ZM42.0277 4.95853e-05H7.97226C6.9243 -0.00368488 5.88598 0.203559 4.91709 0.609845C3.9482 1.01613 3.06789 1.61343 2.32687 2.36734C1.58585 3.12124 0.998761 4.01686 0.59942 5.0026C0.200079 5.98834 -0.00362189 7.04473 4.87376e-05 8.11091V56.8891C-0.00362189 57.9553 0.200079 59.0117 0.59942 59.9974C0.998761 60.9831 1.58585 61.8788 2.32687 62.6327C3.06789 63.3866 3.9482 63.9839 4.91709 64.3902C5.88598 64.7964 6.9243 65.0037 7.97226 65H42.0277C43.0757 65.0037 44.114 64.7964 45.0829 64.3902C46.0518 63.9839 46.9321 63.3866 47.6731 62.6327C48.4141 61.8788 49.0012 60.9831 49.4006 59.9974C49.7999 59.0117 50.0036 57.9553 50 56.8891V8.11091C50.0036 7.04473 49.7999 5.98834 49.4006 5.0026C49.0012 4.01686 48.4141 3.12124 47.6731 2.36734C46.9321 1.61343 46.0518 1.01613 45.0829 0.609845C44.114 0.203559 43.0757 -0.00368488 42.0277 4.95853e-05Z" fill="#0074E4"/>
<path d="M11 12H39.1875" stroke="#0074E4" stroke-width="3" stroke-linecap="round" stroke-linejoin="round"/>
<path d="M11 17.125H39.1875" stroke="#0074E4" stroke-width="3" stroke-linecap="round" stroke-linejoin="round"/>
<path d="M11 22.25H39.1875" stroke="#0074E4" stroke-width="3" stroke-linecap="round" stroke-linejoin="round"/>
<path d="M11 27.375H39.1875" stroke="#0074E4" stroke-width="3" stroke-linecap="round" stroke-linejoin="round"/>
<path d="M11 32.5H39.1875" stroke="#0074E4" stroke-width="3" stroke-linecap="round" stroke-linejoin="round"/>
<path d="M11 37.625H39.1875" stroke="#0074E4" stroke-width="3" stroke-linecap="round" stroke-linejoin="round"/>
<path d="M43.25 70.5C48.9109 70.5 53.5 65.9109 53.5 60.25C53.5 54.5891 48.9109 50 43.25 50C37.5891 50 33 54.5891 33 60.25C33 65.9109 37.5891 70.5 43.25 70.5Z" fill="#00000000" stroke="#0074E4" stroke-width="2.5625" stroke-linecap="round" stroke-linejoin="round"/>
<path d="M39 60.4844L42.5875 64.9688" stroke="#0074E4" stroke-width="2.5625" stroke-linecap="round" stroke-linejoin="round"/>
<path d="M42.5873 64.9688L47.9685 56" stroke="#0074E4" stroke-width="2.5625" stroke-linecap="round" stroke-linejoin="round"/>
</svg>
