<svg width="58" height="53" viewBox="0 0 58 53" fill="none" xmlns="http://www.w3.org/2000/svg">
<path d="M50.9673 7.28125H7.03273C3.70094 7.28125 1 10.0276 1 13.4154V45.1471C1 48.5349 3.70094 51.2812 7.03273 51.2812H50.9673C54.2991 51.2812 57 48.5349 57 45.1471V13.4154C57 10.0276 54.2991 7.28125 50.9673 7.28125Z" fill="#00000000"/>
<path d="M50.7626 8.83685C52.0132 8.83685 53.2127 9.34033 54.097 10.2365C54.9814 11.1328 55.4782 12.3483 55.4782 13.6157V44.9468C55.4782 46.2142 54.9814 47.4297 54.097 48.326C53.2127 49.2222 52.0132 49.7257 50.7626 49.7257H7.23742C5.98676 49.7257 4.78732 49.2222 3.90296 48.326C3.01861 47.4297 2.52178 46.2142 2.52178 44.9468V13.6157C2.52178 12.3483 3.01861 11.1328 3.90296 10.2365C4.78732 9.34033 5.98676 8.83685 7.23742 8.83685H50.7626ZM50.7626 6.28129H7.23742C6.28606 6.27792 5.34344 6.46532 4.46386 6.83272C3.58428 7.20011 2.78511 7.74023 2.11239 8.42197C1.43968 9.10371 0.906701 9.91359 0.544169 10.805C0.181637 11.6963 -0.00328805 12.6516 4.42453e-05 13.6157V44.9468C-0.00328805 45.9109 0.181637 46.8661 0.544169 47.7575C0.906701 48.6489 1.43968 49.4588 2.11239 50.1405C2.78511 50.8223 3.58428 51.3624 4.46386 51.7298C5.34344 52.0972 6.28606 52.2846 7.23742 52.2812H50.7626C51.7139 52.2846 52.6566 52.0972 53.5361 51.7298C54.4157 51.3624 55.2149 50.8223 55.8876 50.1405C56.5603 49.4588 57.0933 48.6489 57.4558 47.7575C57.8184 46.8661 58.0033 45.9109 58 44.9468V13.6157C58.0033 12.6516 57.8184 11.6963 57.4558 10.805C57.0933 9.91359 56.5603 9.10371 55.8876 8.42197C55.2149 7.74023 54.4157 7.20011 53.5361 6.83272C52.6566 6.46532 51.7139 6.27792 50.7626 6.28129Z" fill="#0074E4"/>
<path d="M2.09375 17.75H55.9062" stroke="#0074E4" stroke-width="3" stroke-linecap="round" stroke-linejoin="round"/>
<path d="M10 1.28125V12.2812" stroke="#0074E4" stroke-width="2.5625" stroke-linecap="round" stroke-linejoin="round"/>
<path d="M19 1.28125V12.2812" stroke="#0074E4" stroke-width="2.5625" stroke-linecap="round" stroke-linejoin="round"/>
<path d="M29 1.28125V12.2812" stroke="#0074E4" stroke-width="2.5625" stroke-linecap="round" stroke-linejoin="round"/>
<path d="M39 1.28125V12.2812" stroke="#0074E4" stroke-width="2.5625" stroke-linecap="round" stroke-linejoin="round"/>
<path d="M48 1.28125V12.2812" stroke="#0074E4" stroke-width="2.5625" stroke-linecap="round" stroke-linejoin="round"/>
<path d="M7 25.2812H18" stroke="#0074E4" stroke-width="3" stroke-linecap="round" stroke-linejoin="round"/>
<path d="M7 30.2812H18" stroke="#0074E4" stroke-width="3" stroke-linecap="round" stroke-linejoin="round"/>
<path d="M7 35.2812H18" stroke="#0074E4" stroke-width="3" stroke-linecap="round" stroke-linejoin="round"/>
<path d="M7 41.2812H18" stroke="#0074E4" stroke-width="3" stroke-linecap="round" stroke-linejoin="round"/>
<path d="M24 25.2812H35" stroke="#0074E4" stroke-width="3" stroke-linecap="round" stroke-linejoin="round"/>
<path d="M24 30.2812H35" stroke="#0074E4" stroke-width="3" stroke-linecap="round" stroke-linejoin="round"/>
<path d="M24 35.2812H35" stroke="#0074E4" stroke-width="3" stroke-linecap="round" stroke-linejoin="round"/>
<path d="M24 41.2812H35" stroke="#0074E4" stroke-width="3" stroke-linecap="round" stroke-linejoin="round"/>
<path d="M41 25.2812H52" stroke="#0074E4" stroke-width="3" stroke-linecap="round" stroke-linejoin="round"/>
<path d="M41 30.2812H52" stroke="#0074E4" stroke-width="3" stroke-linecap="round" stroke-linejoin="round"/>
<path d="M41 35.2812H52" stroke="#0074E4" stroke-width="3" stroke-linecap="round" stroke-linejoin="round"/>
<path d="M41 41.2812H52" stroke="#0074E4" stroke-width="3" stroke-linecap="round" stroke-linejoin="round"/>
</svg>
