<svg width="69" height="40" viewBox="0 0 69 40" fill="none" xmlns="http://www.w3.org/2000/svg">
<path d="M7.375 31.0938C5.6842 31.0674 4.07005 30.384 2.87432 29.1882C1.6786 27.9925 0.995174 26.3784 0.96875 24.6876V7.64693C0.968538 5.93832 1.64019 4.29814 2.83874 3.08042C4.03728 1.86269 5.6666 1.16509 7.375 1.13818H33C34.7262 1.13818 36.3818 1.82392 37.6024 3.04455C38.823 4.26518 39.5088 5.92071 39.5088 7.64693V31.0938H7.375Z" fill="#00000000"/>
<path d="M33.3125 2.42846C34.6717 2.42846 35.9753 2.96149 36.9364 3.91029C37.8975 4.85909 38.4375 6.14594 38.4375 7.48775V29.4704H7.6875C6.32827 29.4704 5.0247 28.9373 4.06358 27.9885C3.10245 27.0397 2.5625 25.7529 2.5625 24.4111V7.58893C2.5625 6.24713 3.10245 4.96027 4.06358 4.01147C5.0247 3.06267 6.32827 2.52964 7.6875 2.52964H33.3125M33.3125 0H7.6875C5.64865 0 3.6933 0.799545 2.25162 2.22275C0.809931 3.64595 0 5.57622 0 7.58893V24.4111C0 26.4238 0.809931 28.3541 2.25162 29.7773C3.6933 31.2005 5.64865 32 7.6875 32H41V7.58893C41 5.57622 40.1901 3.64595 38.7484 2.22275C37.3067 0.799545 35.3514 0 33.3125 0Z" fill="#0074E4"/>
<path d="M43.25 31.0938V10.5938H61.1875C62.8865 10.5938 64.516 11.2687 65.7174 12.4701C66.9188 13.6715 67.5938 15.301 67.5938 17V24.6875C67.5938 26.3865 66.9188 28.016 65.7174 29.2174C64.516 30.4188 62.8865 31.0938 61.1875 31.0938H43.25Z" fill="#00000000"/>
<path d="M61.3004 11.5556C62.6618 11.5556 63.9674 12.094 64.93 13.0526C65.8927 14.0111 66.4335 15.3111 66.4335 16.6667V24.3333C66.4335 25.6889 65.8927 26.9889 64.93 27.9474C63.9674 28.906 62.6618 29.4444 61.3004 29.4444H44.5665V11.5556H61.3004ZM61.3004 9H42V31.1822C42 31.3991 42.0865 31.6071 42.2406 31.7605C42.3946 31.9138 42.6035 32 42.8213 32H61.3004C63.3424 32 65.3009 31.1923 66.7448 29.7545C68.1888 28.3167 69 26.3667 69 24.3333V16.6667C69 14.6333 68.1888 12.6833 66.7448 11.2455C65.3009 9.80773 63.3424 9 61.3004 9Z" fill="#0074E4"/>
<path d="M16.3438 38.7812C19.1742 38.7812 21.4688 36.4867 21.4688 33.6562C21.4688 30.8258 19.1742 28.5312 16.3438 28.5312C13.5133 28.5312 11.2188 30.8258 11.2188 33.6562C11.2188 36.4867 13.5133 38.7812 16.3438 38.7812Z" fill="#00000000"/>
<path d="M16.5 29.6C17.2713 29.6 18.0254 29.8287 18.6667 30.2573C19.3081 30.6858 19.8079 31.2949 20.1031 32.0075C20.3983 32.7202 20.4755 33.5043 20.3251 34.2608C20.1746 35.0174 19.8031 35.7123 19.2577 36.2577C18.7123 36.8031 18.0174 37.1746 17.2609 37.3251C16.5043 37.4755 15.7202 37.3983 15.0075 37.1031C14.2949 36.8079 13.6858 36.3081 13.2573 35.6667C12.8287 35.0254 12.6 34.2713 12.6 33.5C12.6 32.4657 13.0109 31.4737 13.7423 30.7423C14.4737 30.0109 15.4657 29.6 16.5 29.6ZM16.5 27C15.2144 27 13.9577 27.3812 12.8888 28.0954C11.8199 28.8097 10.9868 29.8248 10.4948 31.0126C10.0028 32.2003 9.87409 33.5072 10.1249 34.7681C10.3757 36.029 10.9948 37.1872 11.9038 38.0962C12.8128 39.0052 13.971 39.6243 15.2319 39.8751C16.4928 40.1259 17.7997 39.9972 18.9874 39.5052C20.1752 39.0132 21.1903 38.1801 21.9046 37.1112C22.6188 36.0423 23 34.7856 23 33.5C23 32.6464 22.8319 31.8012 22.5052 31.0126C22.1786 30.2239 21.6998 29.5074 21.0962 28.9038C20.4926 28.3002 19.7761 27.8214 18.9874 27.4948C18.1988 27.1681 17.3536 27 16.5 27Z" fill="#0074E4"/>
<path d="M52.2188 38.7812C55.0492 38.7812 57.3438 36.4867 57.3438 33.6562C57.3438 30.8258 55.0492 28.5312 52.2188 28.5312C49.3883 28.5312 47.0938 30.8258 47.0938 33.6562C47.0938 36.4867 49.3883 38.7812 52.2188 38.7812Z" fill="#00000000"/>
<path d="M52.5 29.6C53.2713 29.6 54.0254 29.8287 54.6667 30.2573C55.3081 30.6858 55.8079 31.2949 56.1031 32.0075C56.3983 32.7202 56.4755 33.5043 56.3251 34.2608C56.1746 35.0174 55.8031 35.7123 55.2577 36.2577C54.7123 36.8031 54.0174 37.1746 53.2609 37.3251C52.5043 37.4755 51.7202 37.3983 51.0075 37.1031C50.2949 36.8079 49.6858 36.3081 49.2573 35.6667C48.8287 35.0254 48.6 34.2713 48.6 33.5C48.6 32.4657 49.0109 31.4737 49.7423 30.7423C50.4737 30.0109 51.4657 29.6 52.5 29.6ZM52.5 27C51.2144 27 49.9577 27.3812 48.8888 28.0954C47.8199 28.8097 46.9868 29.8248 46.4948 31.0126C46.0028 32.2003 45.8741 33.5072 46.1249 34.7681C46.3757 36.029 46.9948 37.1872 47.9038 38.0962C48.8128 39.0052 49.971 39.6243 51.2319 39.8751C52.4928 40.1259 53.7997 39.9972 54.9874 39.5052C56.1752 39.0132 57.1903 38.1801 57.9046 37.1112C58.6188 36.0423 59 34.7856 59 33.5C59 31.7761 58.3152 30.1228 57.0962 28.9038C55.8772 27.6848 54.2239 27 52.5 27Z" fill="#0074E4"/>
<path d="M2 23H40" stroke="#0074E4" stroke-width="2.5625" stroke-miterlimit="10"/>
<path d="M50 22.9236V15H58.918C60.0006 15 61.0389 15.4214 61.8044 16.1716C62.5699 16.9217 63 17.9391 63 19C63 20.0609 62.5699 21.0783 61.8044 21.8284C61.0389 22.5786 60.0006 23 58.918 23L50 22.9236Z" fill="#00000000"/>
<path d="M58.825 16.4155C59.5345 16.4155 60.2148 16.6878 60.7165 17.1725C61.2182 17.6571 61.5 18.3145 61.5 19C61.5 19.6855 61.2182 20.3428 60.7165 20.8275C60.2148 21.3122 59.5345 21.5845 58.825 21.5845H51.5V16.4155H58.825ZM58.825 14H49V23.4686C49 23.6095 49.0579 23.7447 49.1611 23.8444C49.2642 23.944 49.4041 24 49.55 24H58.825C60.1975 24 61.5138 23.4732 62.4843 22.5355C63.4548 21.5979 64 20.3261 64 19C64 17.6739 63.4548 16.4021 62.4843 15.4645C61.5138 14.5268 60.1975 14 58.825 14Z" fill="#0074E4"/>
</svg>
