<svg width="71" height="39" viewBox="0 0 71 39" fill="none" xmlns="http://www.w3.org/2000/svg">
<path d="M52.5 22.9864V15.0136H60.3412C60.8706 14.968 61.4034 15.0372 61.9058 15.2169C62.4083 15.3965 62.8695 15.6827 63.2603 16.0573C63.6511 16.432 63.9631 16.8869 64.1764 17.3934C64.3898 17.8999 64.5 18.4469 64.5 19C64.5 19.5531 64.3898 20.1001 64.1764 20.6066C63.9631 21.1131 63.6511 21.568 63.2603 21.9427C62.8695 22.3173 62.4083 22.6035 61.9058 22.7831C61.4034 22.9627 60.8706 23.032 60.3412 22.9864H52.5Z" fill="#00000000"/>
<path d="M15.3345 29.916C13.6083 29.916 11.9528 29.2302 10.7321 28.0096C9.51152 26.789 8.82578 25.1335 8.82578 23.4072V8.03223C8.85268 6.32382 9.55028 4.69451 10.768 3.49597C11.9857 2.29742 13.6259 1.62576 15.3345 1.62598H37.2439C38.9701 1.62598 40.6257 2.31172 41.8463 3.53235C43.0669 4.75297 43.7527 6.4085 43.7527 8.13473V29.916H15.3345Z" fill="#00000000"/>
<path d="M36.7906 2.58333C38.1358 2.58333 39.4259 3.12768 40.377 4.09662C41.3282 5.06555 41.8626 6.37971 41.8626 7.75V28.4167H15.108C13.7628 28.4167 12.4727 27.8723 11.5215 26.9034C10.5703 25.9344 10.036 24.6203 10.036 23.25V7.75C10.036 6.37971 10.5703 5.06555 11.5215 4.09662C12.4727 3.12768 13.7628 2.58333 15.108 2.58333H36.7906ZM36.7906 0H15.108C13.0902 0 11.1551 0.816517 9.72832 2.26992C8.30155 3.72333 7.5 5.69457 7.5 7.75V23.25C7.5 25.3054 8.30155 27.2767 9.72832 28.7301C11.1551 30.1835 13.0902 31 15.108 31H44.5V7.75C44.5 5.69457 43.6985 3.72333 42.2717 2.26992C40.8449 0.816517 38.9098 0 36.892 0H36.7906Z" fill="#0074E4"/>
<path d="M47.4422 29.916V10.5947H63.1247C64.8193 10.5947 66.4449 11.2661 67.6456 12.462C68.8462 13.6579 69.5242 15.2808 69.531 16.9754V23.5354C69.5242 25.23 68.8462 26.8528 67.6456 28.0487C66.4449 29.2446 64.8193 29.916 63.1247 29.916H47.4422Z" fill="#00000000"/>
<path d="M63.0156 11.5988C64.3389 11.5988 65.608 12.141 66.5438 13.1061C67.4795 14.0712 68.0052 15.3802 68.0052 16.745V23.3322C68.0052 24.697 67.4795 26.006 66.5438 26.9711C65.608 27.9362 64.3389 28.4784 63.0156 28.4784H48.9948V11.5988H63.0156ZM63.0156 9.02573H46.5V30.1766C46.5 30.395 46.5841 30.6044 46.7338 30.7588C46.8835 30.9133 47.0866 31 47.2983 31H63.0156C65.0006 31 66.9043 30.1867 68.3079 28.7391C69.7115 27.2914 70.5 25.328 70.5 23.2807V16.7193C70.5 14.672 69.7115 12.7086 68.3079 11.2609C66.9043 9.81328 65.0006 9 63.0156 9V9.02573Z" fill="#0074E4"/>
<path d="M22.7655 37.2188C25.2988 37.2188 27.3524 35.0734 27.3524 32.4269C27.3524 29.7804 25.2988 27.635 22.7655 27.635C20.2323 27.635 18.1786 29.7804 18.1786 32.4269C18.1786 35.0734 20.2323 37.2188 22.7655 37.2188Z" fill="#00000000"/>
<path d="M23.1631 28.7357C23.9195 28.6642 24.6798 28.8229 25.3444 29.1912C26.009 29.5594 26.5468 30.12 26.8872 30.7993C27.2276 31.4786 27.3547 32.245 27.2519 32.9979C27.1491 33.7507 26.8211 34.4549 26.3111 35.0181C25.801 35.5813 25.1327 35.9771 24.3937 36.1536C23.6547 36.3302 22.8797 36.2792 22.1702 36.0075C21.4607 35.7357 20.8499 35.2558 20.4179 34.6307C19.986 34.0056 19.753 33.2645 19.7496 32.5046C19.72 31.543 20.0701 30.6084 20.7243 29.9031C21.3784 29.1977 22.284 28.7784 23.245 28.7357M23.245 26.0047C21.9503 25.9556 20.6704 26.2948 19.5698 26.9786C18.4691 27.6624 17.598 28.6596 17.0682 29.8422C16.5384 31.0247 16.3741 32.3387 16.5964 33.6153C16.8187 34.892 17.4175 36.073 18.3159 37.0068C19.2143 37.9406 20.3712 38.5845 21.6382 38.8559C22.9052 39.1272 24.2243 39.0137 25.4263 38.5298C26.6283 38.0459 27.6582 37.2137 28.3838 36.1401C29.1094 35.0665 29.4976 33.8005 29.4985 32.5046C29.5166 31.6667 29.369 30.8334 29.0642 30.0526C28.7594 29.2719 28.3033 28.5591 27.7223 27.9551C27.1412 27.3511 26.4465 26.8679 25.6782 26.5332C24.9099 26.1985 24.083 26.0188 23.245 26.0047Z" fill="#0074E4"/>
<path d="M55.5914 37.2188C54.6282 37.2701 53.6719 37.0311 52.8461 36.5327C52.0203 36.0343 51.3631 35.2996 50.9595 34.4235C50.556 33.5474 50.4248 32.5704 50.5828 31.6189C50.7408 30.6674 51.1808 29.7852 51.8458 29.0866C52.5108 28.388 53.3702 27.905 54.3128 27.7003C55.2553 27.4956 56.2376 27.5786 57.1325 27.9384C58.0274 28.2982 58.7937 28.9184 59.3321 29.7187C59.8706 30.5189 60.1564 31.4624 60.1527 32.4269C60.1802 33.6663 59.7158 34.8663 58.8611 35.7643C58.0063 36.6622 56.8307 37.1852 55.5914 37.2188Z" fill="#00000000"/>
<path d="M56.2726 28.7368C57.0265 28.6876 57.7778 28.866 58.429 29.2491C59.0802 29.6321 59.6013 30.2021 59.9245 30.885C60.2478 31.5679 60.3584 32.3322 60.242 33.0787C60.1255 33.8252 59.7874 34.5195 59.2715 35.0714C58.7555 35.6234 58.0856 36.0075 57.3487 36.174C56.6118 36.3405 55.8418 36.2816 55.1388 36.005C54.4357 35.7284 53.832 35.2469 53.406 34.6229C52.98 33.9989 52.7514 33.2613 52.7498 32.5057C52.7315 32.0264 52.8084 31.5482 52.9759 31.0988C53.1435 30.6494 53.3984 30.2376 53.7259 29.8871C54.0534 29.5367 54.4471 29.2547 54.8842 29.0572C55.3213 28.8598 55.7932 28.7509 56.2726 28.7368ZM56.2726 26.0057C54.9769 25.9512 53.6945 26.2857 52.5903 26.966C51.4862 27.6463 50.6108 28.6413 50.0767 29.8232C49.5426 31.0051 49.3743 32.3198 49.5934 33.5981C49.8125 34.8764 50.409 36.06 51.3061 36.9965C52.2033 37.9331 53.3601 38.5798 54.6277 38.8536C55.8954 39.1273 57.2159 39.0155 58.4195 38.5326C59.6232 38.0497 60.6548 37.2177 61.3818 36.1437C62.1088 35.0697 62.4979 33.8027 62.499 32.5057C62.5284 30.82 61.8905 29.1909 60.7242 27.9735C59.558 26.756 57.9579 26.0487 56.2726 26.0057Z" fill="#0074E4"/>
<path d="M8.5 23H43.6575" stroke="#0074E4" stroke-width="3" stroke-miterlimit="10"/>
<path d="M60.4605 16.5875C60.838 16.4867 61.2341 16.4728 61.6181 16.5467C62.002 16.6207 62.3634 16.7806 62.6742 17.0139C62.985 17.2473 63.2368 17.5478 63.4102 17.8923C63.5835 18.2367 63.6737 18.6158 63.6737 19C63.6737 19.3842 63.5835 19.7633 63.4102 20.1077C63.2368 20.4522 62.985 20.7527 62.6742 20.9861C62.3634 21.2194 62.002 21.3793 61.6181 21.4533C61.2341 21.5272 60.838 21.5133 60.4605 21.4125H54.0456V16.5875H60.4605ZM60.4605 14.0875H51.5V23.3875C51.5 23.5267 51.5563 23.6603 51.6566 23.7587C51.7568 23.8572 51.8928 23.9125 52.0346 23.9125H60.4605C61.1963 24.0495 61.9539 24.0254 62.6791 23.8419C63.4044 23.6583 64.0795 23.3199 64.6563 22.8508C65.2331 22.3816 65.6974 21.7932 66.0161 21.1276C66.3348 20.462 66.5 19.7355 66.5 19C66.5 18.2645 66.3348 17.538 66.0161 16.8724C65.6974 16.2068 65.2331 15.6184 64.6563 15.1492C64.0795 14.6801 63.4044 14.3417 62.6791 14.1581C61.9539 13.9746 61.1963 13.9505 60.4605 14.0875Z" fill="#0074E4"/>
<path d="M2.5 9H20.5" stroke="#0074E4" stroke-width="3" stroke-miterlimit="10" stroke-linecap="round"/>
<path d="M5.5 13H16.5" stroke="#0074E4" stroke-width="3" stroke-miterlimit="10" stroke-linecap="round"/>
<path d="M1.5 17H24.5" stroke="#0074E4" stroke-width="3" stroke-miterlimit="10" stroke-linecap="round"/>
</svg>
