<svg width="75" height="54" viewBox="0 0 75 54" fill="none" xmlns="http://www.w3.org/2000/svg">
<path d="M22.4418 47.2054C33.8389 47.2054 43.078 44.4337 43.078 41.0146C43.078 37.5955 33.8389 34.8237 22.4418 34.8237C11.0448 34.8237 1.80566 37.5955 1.80566 41.0146C1.80566 44.4337 11.0448 47.2054 22.4418 47.2054Z" fill="#00000000" stroke="#F7F7F7" stroke-width="3.61133" stroke-miterlimit="10"/>
<path d="M22.4418 38.9505C33.8389 38.9505 43.078 36.1788 43.078 32.7597C43.078 29.3406 33.8389 26.5688 22.4418 26.5688C11.0448 26.5688 1.80566 29.3406 1.80566 32.7597C1.80566 36.1788 11.0448 38.9505 22.4418 38.9505Z" fill="#00000000" stroke="#F7F7F7" stroke-width="3.61133" stroke-miterlimit="10"/>
<path d="M22.4418 30.6964C33.8389 30.6964 43.078 27.9247 43.078 24.5055C43.078 21.0864 33.8389 18.3147 22.4418 18.3147C11.0448 18.3147 1.80566 21.0864 1.80566 24.5055C1.80566 27.9247 11.0448 30.6964 22.4418 30.6964Z" fill="#00000000" stroke="#F7F7F7" stroke-width="3.61133" stroke-miterlimit="10"/>
<path d="M22.4418 22.4418C33.8389 22.4418 43.078 19.67 43.078 16.2509C43.078 12.8318 33.8389 10.0601 22.4418 10.0601C11.0448 10.0601 1.80566 12.8318 1.80566 16.2509C1.80566 19.67 11.0448 22.4418 22.4418 22.4418Z" fill="#00000000" stroke="#F7F7F7" stroke-width="3.61133" stroke-miterlimit="10"/>
<path d="M22.4418 14.1874C33.8389 14.1874 43.078 11.4156 43.078 7.99651C43.078 4.5774 33.8389 1.80566 22.4418 1.80566C11.0448 1.80566 1.80566 4.5774 1.80566 7.99651C1.80566 11.4156 11.0448 14.1874 22.4418 14.1874Z" fill="#00000000" stroke="#F7F7F7" stroke-width="3.61133" stroke-miterlimit="10"/>
<path d="M55.9307 51.3369C65.0434 51.3369 72.4307 43.9496 72.4307 34.8369C72.4307 25.7242 65.0434 18.3369 55.9307 18.3369C46.818 18.3369 39.4307 25.7242 39.4307 34.8369C39.4307 43.9496 46.818 51.3369 55.9307 51.3369Z" fill="#00000000" stroke="#F7F7F7" stroke-width="3.61133" stroke-miterlimit="10"/>
<path d="M55.291 45.3369V25.3369H56.5723V45.3369H55.291ZM59.6035 31.3369C59.5098 30.5452 59.1296 29.9307 58.4629 29.4932C57.7962 29.0557 56.9785 28.8369 56.0098 28.8369C55.3014 28.8369 54.6816 28.9515 54.1504 29.1807C53.6243 29.4098 53.2129 29.7249 52.916 30.126C52.6243 30.527 52.4785 30.9827 52.4785 31.4932C52.4785 31.9202 52.5801 32.2874 52.7832 32.5947C52.9915 32.8968 53.2572 33.1494 53.5801 33.3525C53.903 33.5505 54.2415 33.7145 54.5957 33.8447C54.9499 33.9697 55.2754 34.0713 55.5723 34.1494L57.1973 34.5869C57.6139 34.6963 58.0775 34.8473 58.5879 35.04C59.1035 35.2327 59.5957 35.4958 60.0645 35.8291C60.5384 36.1572 60.929 36.5791 61.2363 37.0947C61.5436 37.6104 61.6973 38.2432 61.6973 38.9932C61.6973 39.8577 61.4707 40.639 61.0176 41.3369C60.5697 42.0348 59.9134 42.5895 59.0488 43.001C58.1895 43.4124 57.1452 43.6182 55.916 43.6182C54.7702 43.6182 53.778 43.4333 52.9395 43.0635C52.1061 42.6937 51.4499 42.1781 50.9707 41.5166C50.4967 40.8551 50.2285 40.0869 50.166 39.2119H52.166C52.2181 39.8161 52.4212 40.3161 52.7754 40.7119C53.1348 41.1025 53.5879 41.3942 54.1348 41.5869C54.6868 41.7744 55.2806 41.8682 55.916 41.8682C56.6556 41.8682 57.3197 41.7484 57.9082 41.5088C58.4967 41.264 58.9629 40.9255 59.3066 40.4932C59.6504 40.0557 59.8223 39.5452 59.8223 38.9619C59.8223 38.4307 59.6738 37.9984 59.377 37.665C59.0801 37.3317 58.6895 37.0609 58.2051 36.8525C57.7207 36.6442 57.1973 36.4619 56.6348 36.3057L54.666 35.7432C53.416 35.3838 52.4264 34.8708 51.6973 34.2041C50.9681 33.5374 50.6035 32.665 50.6035 31.5869C50.6035 30.6911 50.8457 29.9098 51.3301 29.2432C51.8197 28.5713 52.4759 28.0505 53.2988 27.6807C54.127 27.3057 55.0514 27.1182 56.0723 27.1182C57.1035 27.1182 58.0202 27.3031 58.8223 27.6729C59.6243 28.0374 60.2598 28.5374 60.7285 29.1729C61.2025 29.8083 61.4525 30.5296 61.4785 31.3369H59.6035Z" fill="#F7F7F7"/>
</svg>
