<svg width="70" height="61" viewBox="0 0 70 61" fill="none" xmlns="http://www.w3.org/2000/svg">
<path d="M70 15.2344H0V42.2344H70V15.2344Z" fill="#00000000"/>
<path d="M35 58.4531C50.5848 58.4531 63.2188 45.8192 63.2188 30.2344C63.2188 14.6496 50.5848 2.01562 35 2.01562C19.4152 2.01562 6.78125 14.6496 6.78125 30.2344C6.78125 45.8192 19.4152 58.4531 35 58.4531Z" fill="#00000000" stroke="#F7F7F7" stroke-width="4.03125" stroke-miterlimit="10"/>
<path d="M62.2976 18.2344H7.7024C4.55305 18.2344 2 20.7729 2 23.9044V33.5644C2 36.6958 4.55305 39.2344 7.7024 39.2344H62.2976C65.4469 39.2344 68 36.6958 68 33.5644V23.9044C68 20.7729 65.4469 18.2344 62.2976 18.2344Z" fill="#00000000" stroke="#F7F7F7" stroke-width="2.6875" stroke-miterlimit="10"/>
<path d="M34.5 36.2344C38.6421 36.2344 42 32.8765 42 28.7344C42 24.5922 38.6421 21.2344 34.5 21.2344C30.3579 21.2344 27 24.5922 27 28.7344C27 32.8765 30.3579 36.2344 34.5 36.2344Z" fill="#F7F7F7"/>
<path d="M13 9.99731L56 47.6223" stroke="#F7F7F7" stroke-width="3.49375" stroke-miterlimit="10"/>
</svg>
