<svg width="55" height="70" viewBox="0 0 55 70" fill="none" xmlns="http://www.w3.org/2000/svg">
<path d="M37.8273 63.8468C46.0276 63.8468 52.6753 61.8525 52.6753 59.3924C52.6753 56.9323 46.0276 54.938 37.8273 54.938C29.6269 54.938 22.9792 56.9323 22.9792 59.3924C22.9792 61.8525 29.6269 63.8468 37.8273 63.8468Z" fill="#00000000" stroke="#F7F7F7" stroke-width="2.96961" stroke-miterlimit="10"/>
<path d="M37.8273 57.9076C46.0276 57.9076 52.6753 55.9133 52.6753 53.4532C52.6753 50.9931 46.0276 48.9988 37.8273 48.9988C29.6269 48.9988 22.9792 50.9931 22.9792 53.4532C22.9792 55.9133 29.6269 57.9076 37.8273 57.9076Z" fill="#00000000" stroke="#F7F7F7" stroke-width="2.96961" stroke-miterlimit="10"/>
<path d="M37.8273 51.9682C46.0276 51.9682 52.6753 49.9739 52.6753 47.5137C52.6753 45.0536 46.0276 43.0593 37.8273 43.0593C29.6269 43.0593 22.9792 45.0536 22.9792 47.5137C22.9792 49.9739 29.6269 51.9682 37.8273 51.9682Z" fill="#00000000" stroke="#F7F7F7" stroke-width="2.96961" stroke-miterlimit="10"/>
<path d="M37.8273 46.0292C46.0276 46.0292 52.6753 44.0349 52.6753 41.5748C52.6753 39.1147 46.0276 37.1204 37.8273 37.1204C29.6269 37.1204 22.9792 39.1147 22.9792 41.5748C22.9792 44.0349 29.6269 46.0292 37.8273 46.0292Z" fill="#00000000" stroke="#F7F7F7" stroke-width="2.96961" stroke-miterlimit="10"/>
<path d="M37.8273 40.09C46.0276 40.09 52.6753 38.0957 52.6753 35.6356C52.6753 33.1755 46.0276 31.1812 37.8273 31.1812C29.6269 31.1812 22.9792 33.1755 22.9792 35.6356C22.9792 38.0957 29.6269 40.09 37.8273 40.09Z" fill="#00000000" stroke="#F7F7F7" stroke-width="2.96961" stroke-miterlimit="10"/>
<path d="M37.8273 34.1505C46.0276 34.1505 52.6753 32.1562 52.6753 29.6961C52.6753 27.236 46.0276 25.2417 37.8273 25.2417C29.6269 25.2417 22.9792 27.236 22.9792 29.6961C22.9792 32.1562 29.6269 34.1505 37.8273 34.1505Z" fill="#00000000" stroke="#F7F7F7" stroke-width="2.96961" stroke-miterlimit="10"/>
<path d="M37.8273 28.2113C46.0276 28.2113 52.6753 26.217 52.6753 23.7569C52.6753 21.2968 46.0276 19.3025 37.8273 19.3025C29.6269 19.3025 22.9792 21.2968 22.9792 23.7569C22.9792 26.217 29.6269 28.2113 37.8273 28.2113Z" fill="#00000000" stroke="#F7F7F7" stroke-width="2.96961" stroke-miterlimit="10"/>
<path d="M37.8273 22.2724C46.0276 22.2724 52.6753 20.2781 52.6753 17.8179C52.6753 15.3578 46.0276 13.3635 37.8273 13.3635C29.6269 13.3635 22.9792 15.3578 22.9792 17.8179C22.9792 20.2781 29.6269 22.2724 37.8273 22.2724Z" fill="#00000000" stroke="#F7F7F7" stroke-width="2.96961" stroke-miterlimit="10"/>
<path d="M37.8273 16.3329C46.0276 16.3329 52.6753 14.3386 52.6753 11.8785C52.6753 9.41838 46.0276 7.42407 37.8273 7.42407C29.6269 7.42407 22.9792 9.41838 22.9792 11.8785C22.9792 14.3386 29.6269 16.3329 37.8273 16.3329Z" fill="#00000000" stroke="#F7F7F7" stroke-width="2.96961" stroke-miterlimit="10"/>
<path d="M37.8273 10.3937C46.0276 10.3937 52.6753 8.39939 52.6753 5.93928C52.6753 3.47917 46.0276 1.48486 37.8273 1.48486C29.6269 1.48486 22.9792 3.47917 22.9792 5.93928C22.9792 8.39939 29.6269 10.3937 37.8273 10.3937Z" fill="#00000000" stroke="#F7F7F7" stroke-width="2.96961" stroke-miterlimit="10"/>
<path d="M13.9289 68.2305C20.8016 68.2305 26.373 62.6591 26.373 55.7864C26.373 48.9137 20.8016 43.3423 13.9289 43.3423C7.05621 43.3423 1.4848 48.9137 1.4848 55.7864C1.4848 62.6591 7.05621 68.2305 13.9289 68.2305Z" fill="#00000000" stroke="#F7F7F7" stroke-width="2.96961" stroke-miterlimit="10"/>
<path d="M12.8152 65.4233V45.4233H14.0964V65.4233H12.8152ZM17.1277 51.4233C17.0339 50.6317 16.6537 50.0171 15.987 49.5796C15.3204 49.1421 14.5027 48.9233 13.5339 48.9233C12.8256 48.9233 12.2058 49.0379 11.6745 49.2671C11.1485 49.4963 10.737 49.8114 10.4402 50.2124C10.1485 50.6134 10.0027 51.0692 10.0027 51.5796C10.0027 52.0067 10.1042 52.3739 10.3073 52.6812C10.5157 52.9832 10.7813 53.2358 11.1042 53.439C11.4271 53.6369 11.7657 53.8009 12.1198 53.9312C12.474 54.0562 12.7995 54.1577 13.0964 54.2358L14.7214 54.6733C15.1381 54.7827 15.6016 54.9338 16.112 55.1265C16.6277 55.3192 17.1198 55.5822 17.5886 55.9155C18.0626 56.2437 18.4532 56.6655 18.7605 57.1812C19.0678 57.6968 19.2214 58.3296 19.2214 59.0796C19.2214 59.9442 18.9948 60.7254 18.5417 61.4233C18.0938 62.1213 17.4376 62.6759 16.573 63.0874C15.7136 63.4989 14.6693 63.7046 13.4402 63.7046C12.2943 63.7046 11.3021 63.5197 10.4636 63.1499C9.63026 62.7801 8.97401 62.2645 8.49484 61.603C8.02088 60.9416 7.75266 60.1733 7.69016 59.2983H9.69016C9.74224 59.9025 9.94536 60.4025 10.2995 60.7983C10.6589 61.189 11.112 61.4806 11.6589 61.6733C12.211 61.8608 12.8047 61.9546 13.4402 61.9546C14.1797 61.9546 14.8438 61.8348 15.4323 61.5952C16.0209 61.3504 16.487 61.0119 16.8308 60.5796C17.1745 60.1421 17.3464 59.6317 17.3464 59.0483C17.3464 58.5171 17.198 58.0848 16.9011 57.7515C16.6042 57.4181 16.2136 57.1473 15.7292 56.939C15.2448 56.7306 14.7214 56.5483 14.1589 56.3921L12.1902 55.8296C10.9402 55.4702 9.95057 54.9572 9.2214 54.2905C8.49224 53.6239 8.12766 52.7515 8.12766 51.6733C8.12766 50.7775 8.36984 49.9963 8.85422 49.3296C9.3438 48.6577 10.0001 48.1369 10.823 47.7671C11.6511 47.3921 12.5756 47.2046 13.5964 47.2046C14.6277 47.2046 15.5443 47.3895 16.3464 47.7593C17.1485 48.1239 17.7839 48.6239 18.2527 49.2593C18.7266 49.8947 18.9766 50.616 19.0027 51.4233H17.1277Z" fill="#F7F7F7"/>
</svg>
