<svg width="56" height="39" viewBox="0 0 56 39" fill="none" xmlns="http://www.w3.org/2000/svg">
<path fill-rule="evenodd" clip-rule="evenodd" d="M47 33.8462C44.3235 33.8462 42.1538 31.6765 42.1538 29C42.1538 26.3235 44.3235 24.1538 47 24.1538C49.6765 24.1538 51.8462 26.3235 51.8462 29C51.8462 31.6765 49.6765 33.8462 47 33.8462ZM47 38C42.0294 38 38 33.9706 38 29C38 24.0294 42.0294 20 47 20C51.9706 20 56 24.0294 56 29C56 33.9706 51.9706 38 47 38Z" fill="#0074E4"/>
<path fill-rule="evenodd" clip-rule="evenodd" d="M35.6534 0.807161C35.4255 0.314925 34.933 0 34.3911 0H27.4346V2.78571H33.5025L46.3461 30.5321C46.6691 31.2301 47.4962 31.5336 48.1934 31.2102C48.8906 30.8867 49.1938 30.0587 48.8707 29.3607L35.6534 0.807161ZM10.0434 34.8214C7.35404 34.8214 5.17388 32.6388 5.17388 29.9464C5.17388 27.254 7.35404 25.0714 10.0434 25.0714C12.7328 25.0714 14.9129 27.254 14.9129 29.9464C14.9129 32.6388 12.7328 34.8214 10.0434 34.8214ZM10.0434 39C5.04888 39 1 34.9466 1 29.9464C1 24.9462 5.04888 20.8929 10.0434 20.8929C15.038 20.8929 19.0868 24.9462 19.0868 29.9464C19.0868 34.9466 15.038 39 10.0434 39Z" fill="#0074E4"/>
<path fill-rule="evenodd" clip-rule="evenodd" d="M26 29.5C26 30.3284 25.3658 31 24.5833 31H10.4166C9.63426 31 9 30.3284 9 29.5C9 28.6716 9.63426 28 10.4166 28H24.5833C25.3658 28 26 28.6716 26 29.5Z" fill="#0074E4"/>
<path d="M33.5707 19.3533L34.9664 16.5756C35.3593 15.7936 35.3593 14.8731 34.9664 14.0911L33.5707 11.3133C33.0978 10.3722 32.1313 9.77778 31.0739 9.77778H26.4943C25.278 9.77778 24.0697 9.97556 22.9174 10.3633L18.528 11.8406C17.6416 12.1388 17.2955 13.2035 17.8383 13.9619L22.3791 20.3058C22.6409 20.6717 23.0645 20.8889 23.5159 20.8889H31.0739C32.1313 20.8889 33.0978 20.2944 33.5707 19.3533ZM1.39571 12.5556H12.6959C13.1248 12.5556 13.53 12.7519 13.7946 13.0879L17.818 18.199C18.1992 18.6835 17.806 19.3854 17.1915 19.3175L1.24158 17.5539C0.534752 17.4758 0 16.8812 0 16.1736V13.9444C0 13.1774 0.624873 12.5556 1.39571 12.5556ZM33.497 23.6667H25.1228C23.5811 23.6667 22.3313 24.9103 22.3313 26.4444V29.2222C22.3313 30.7564 23.5811 32 25.1228 32H30.7056C32.2473 32 33.497 30.7564 33.497 29.2222V23.6667ZM40.9068 7H46.393C46.6206 7 46.834 7.11056 46.9646 7.29625L50.8726 12.8518C51.1964 13.3121 50.8655 13.9444 50.3009 13.9444H43.6983C43.4339 13.9444 43.1923 13.7958 43.0741 13.5606L40.2827 8.005C40.0507 7.54333 40.3881 7 40.9068 7Z" fill="#0074E4"/>
</svg>
