<svg width="57" height="39" viewBox="0 0 57 39" fill="none" xmlns="http://www.w3.org/2000/svg">
<path d="M56.2255 33.6C56.1591 34.0644 56.0484 34.5175 55.8824 34.8686C55.5836 35.4916 55.2959 35.5482 54.167 35.4916C52.7061 35.4236 50.6144 35.4916 48.401 35.5822C48.401 36.2052 48.4231 36.4997 48.4231 36.4997C48.567 38.21 49.3196 38.2666 49.6184 38.2666H54.3773C54.7978 38.2666 55.1852 38.2666 55.484 38.0628C55.8714 37.8022 56.0374 37.0433 56.1812 35.7181C56.2034 35.5255 56.2144 35.2764 56.2255 34.9819V34.9705C56.2255 34.8799 56.2366 34.7666 56.2366 34.642V34.5175C56.2366 34.2116 56.2366 33.8718 56.2255 33.6ZM0.247639 33.6C0.314043 34.0644 0.424715 34.5175 0.590722 34.8686C0.889537 35.4916 1.17728 35.5482 2.30614 35.4916C3.76701 35.4236 5.85871 35.4916 8.07214 35.5822C8.07214 36.2052 8.05001 36.4997 8.05001 36.4997C7.90614 38.21 7.15357 38.2666 6.85475 38.2666H2.09586C1.67531 38.2666 1.32116 38.2666 0.989141 38.0628C0.590722 37.8249 0.435782 37.0433 0.291908 35.7181C0.269774 35.5255 0.258707 35.2764 0.247639 34.9819V34.9705C0.247639 34.8799 0.236572 34.7666 0.236572 34.642V34.5175C0.247639 34.2116 0.247639 33.8718 0.247639 33.6Z" fill="#0074E4"/>
<path d="M56.4731 23.8687C56.4731 20.4825 56.0319 17.1736 55.8555 16.8096C55.7231 16.5449 54.8738 15.85 52.9436 14.5374C50.9913 13.2028 51.0354 13.4013 50.6824 12.53C51.0023 12.4307 51.3111 12.2432 51.4986 12.2211C51.9178 12.177 51.9398 12.5741 52.8112 12.5741C53.6826 12.5741 55.5687 12.3425 55.9547 11.9564C56.3408 11.5704 56.4621 11.438 56.4621 11.0961C56.4621 10.7542 56.2636 10.0482 55.8885 9.62911C55.5135 9.20997 53.9142 9.0004 52.9766 8.87907C52.0391 8.75774 51.9067 8.87908 51.6641 9.03349C51.278 9.27615 51.256 11.4932 51.256 11.4932L50.3405 11.5152C49.7449 10.0482 48.9176 7.09223 47.6271 4.76492C46.2153 2.22804 44.7373 1.43389 44.1196 1.23535C43.513 1.04784 42.9615 0.915482 38.8253 0.496346C34.6008 0.0551495 31.2367 0 28.2366 0C25.2364 0 21.8723 0.0661794 17.6479 0.496346C13.5116 0.926512 12.9601 1.04784 12.3535 1.23535C11.7469 1.42286 10.2578 2.22804 8.84599 4.76492C7.55549 7.09223 6.72824 10.0482 6.13263 11.5152L5.21715 11.4932C5.21715 11.4932 5.20612 9.27615 4.80904 9.03349C4.56638 8.87908 4.43402 8.74672 3.49648 8.87907C2.55894 9.01143 0.959602 9.20997 0.584585 9.62911C0.209568 10.0482 0.0110299 10.7542 0.0110299 11.0961C0.0110299 11.438 0.132359 11.5814 0.518406 11.9564C0.904452 12.3425 2.79057 12.5741 3.66193 12.5741C4.53329 12.5741 4.55535 12.177 4.97449 12.2211C5.162 12.2432 5.48186 12.4307 5.7907 12.53C5.42671 13.4013 5.48186 13.2028 3.52957 14.5374C1.59934 15.861 0.739004 16.5449 0.617675 16.8096C0.441196 17.1736 0 20.4825 0 23.8687C0 27.2549 0.242658 30.2992 0.242658 31.3801C0.242658 31.8323 0.242658 32.6265 0.341927 33.3875C0.408107 33.8398 0.507376 34.2809 0.683854 34.6229C0.981662 35.2295 1.25741 35.2847 2.39349 35.2295C3.84944 35.1633 5.95615 35.2295 8.12904 35.3178C9.58499 35.3729 11.074 35.4281 12.3976 35.4611C15.7066 35.5273 14.736 34.9758 16.1478 34.9979C17.5596 35.02 23.1297 35.2516 28.2255 35.2516C33.3214 35.2516 38.9025 35.02 40.3033 34.9979C41.7151 34.9758 40.7445 35.5273 44.0535 35.4611C45.377 35.4391 46.8661 35.3729 48.322 35.3178C50.4949 35.2406 52.6127 35.1633 54.0576 35.2295C55.1937 35.2847 55.4694 35.2295 55.7672 34.6229C55.9327 34.2809 56.043 33.8398 56.1091 33.3875C56.2194 32.6265 56.2084 31.8323 56.2084 31.3801C56.2305 30.3102 56.4731 27.2549 56.4731 23.8687ZM9.50778 7.16944C10.0372 5.93409 11.6255 3.45236 12.3976 3.01116C12.5851 2.90087 14.2286 2.38246 18.3427 2.10671C22.126 1.85302 26.3063 1.75376 28.2476 1.75376C30.1889 1.75376 34.3692 1.85302 38.1525 2.10671C42.2556 2.38246 43.9211 2.88984 44.0976 3.01116C45.0903 3.69502 46.458 5.93409 46.9874 7.16944C47.5168 8.40479 48.2228 10.8314 48.0904 11.1623C47.958 11.4932 48.2228 11.6586 46.4359 11.5152C44.6601 11.3829 33.5089 11.2395 28.2586 11.2395C23.0194 11.2395 11.8682 11.3829 10.0813 11.5152C8.29449 11.6476 8.55921 11.4932 8.42685 11.1623C8.27243 10.8314 8.97834 8.41582 9.50778 7.16944ZM13.5668 20.9789C12.7726 21.1774 12.2983 21.6076 11.3057 21.5966C10.313 21.5966 7.6327 21.1443 7.05914 21.1223C6.48559 21.1002 5.97821 21.5083 5.6804 21.5855C5.3826 21.6627 4.79801 21.4532 3.91562 21.1774C3.03322 20.9017 2.51482 20.9789 2.22804 19.7766C1.93023 18.5854 2.22804 16.8758 2.22804 16.8758C4.13622 16.7875 5.97821 16.964 9.43057 17.9346C12.8829 18.9053 14.8021 20.7693 14.8021 20.7693C14.8021 20.7693 14.3609 20.7803 13.5668 20.9789ZM39.5091 29.6704C37.9319 29.88 31.3249 29.9352 28.2366 29.9352C25.1482 29.9352 18.5413 29.869 16.964 29.6704C15.3536 29.4609 13.2579 27.5306 14.7029 25.9975C16.6552 23.9128 16.2912 23.979 20.7252 23.4055C24.5636 22.9091 27.4755 22.8871 28.2366 22.8871C28.9866 22.8871 31.9095 22.9201 35.7479 23.4055C40.182 23.979 39.818 23.9128 41.7703 25.9975C43.2152 27.5306 41.1195 29.4609 39.5091 29.6704ZM54.2451 19.7877C53.9473 20.9789 53.4399 20.9127 52.5575 21.1884C51.6751 21.4642 51.0905 21.6627 50.7927 21.5966C50.4949 21.5304 49.9875 21.1223 49.414 21.1333C48.8404 21.1554 46.1602 21.6076 45.1675 21.6076C44.1748 21.6076 43.7005 21.1884 42.9063 20.9899C42.1122 20.7914 41.671 20.7914 41.671 20.7914C41.671 20.7914 43.5792 18.9163 47.0426 17.9567C50.4949 16.9861 52.3369 16.8096 54.2451 16.8978C54.2451 16.8758 54.5429 18.5854 54.2451 19.7877Z" fill="#0074E4"/>
</svg>
