<svg width="51" height="55" viewBox="0 0 51 55" fill="none" xmlns="http://www.w3.org/2000/svg">
<path d="M2.81346 55H0.613461V49.5H2.81346C5.01346 49.5 7.11034 49.2594 9.10409 48.7781C11.0978 48.2969 13.3322 47.5292 15.8072 46.475C17.5489 47.3458 19.0728 48.0677 20.3791 48.6406C21.6853 49.2135 23.3468 49.5 25.3635 49.5C27.3801 49.5 29.0416 49.2135 30.3478 48.6406C31.6541 48.0677 33.178 47.3458 34.9197 46.475C37.3489 47.5292 39.5833 48.2969 41.6228 48.7781C43.6624 49.2594 45.7822 49.5 47.9822 49.5H50.1135V55H47.9822C45.7364 55 43.5478 54.7938 41.4166 54.3812C39.2853 53.9688 37.1885 53.35 35.126 52.525C33.2926 53.3958 31.6197 54.0146 30.1072 54.3812C28.5947 54.7479 27.0135 54.9313 25.3635 54.9313C23.7135 54.9313 22.1437 54.7479 20.6541 54.3812C19.1645 54.0146 17.503 53.3958 15.6697 52.525C13.6072 53.35 11.5103 53.9688 9.37909 54.3812C7.24784 54.7938 5.05929 55 2.81346 55ZM25.3635 44C22.6135 44 20.2072 43.0833 18.1447 41.25L15.051 38.5C13.8135 39.7375 12.427 40.7917 10.8916 41.6625C9.35617 42.5333 7.71763 43.1521 5.97596 43.5187L0.132212 24.75C-0.0969551 23.9708 -0.0282051 23.2604 0.338462 22.6188C0.705128 21.9771 1.27804 21.5417 2.05721 21.3125L6.11346 20.2125V11C6.11346 9.4875 6.652 8.19271 7.72909 7.11563C8.80617 6.03854 10.101 5.5 11.6135 5.5H18.4885V0H32.2385V5.5H39.1135C40.626 5.5 41.9208 6.03854 42.9978 7.11563C44.0749 8.19271 44.6135 9.4875 44.6135 11V20.2125L48.6697 21.3125C49.4489 21.5417 50.0218 21.9771 50.3885 22.6188C50.7551 23.2604 50.8239 23.9708 50.5947 24.75L44.751 43.5187C43.0093 43.1521 41.3708 42.5333 39.8353 41.6625C38.2999 40.7917 36.9135 39.7375 35.676 38.5L32.5822 41.25C30.5197 43.0833 28.1135 44 25.3635 44ZM25.501 38.5C26.9218 38.5 28.1822 38.0302 29.2822 37.0906C30.3822 36.151 31.3905 35.1542 32.3072 34.1L35.4697 30.4562L38.2885 33.3438C38.7926 33.8479 39.3083 34.3177 39.8353 34.7531C40.3624 35.1885 40.878 35.6354 41.3822 36.0938L44.5447 25.85L25.3635 20.8313L6.25096 25.85L9.41346 36.0938C9.91763 35.6354 10.4333 35.1885 10.9603 34.7531C11.4874 34.3177 12.003 33.8479 12.5072 33.3438L15.326 30.4562L18.4885 34.1C19.4051 35.2 20.4364 36.2083 21.5822 37.125C22.728 38.0417 24.0343 38.5 25.501 38.5ZM11.6135 18.7688L25.3635 15.125L39.1135 18.7688V11H11.6135V18.7688Z" fill="#0074E4"/>
</svg>
