<svg width="76" height="57" viewBox="0 0 76 57" fill="none" xmlns="http://www.w3.org/2000/svg">
<path d="M41.6676 30.1724C41.0214 31.6152 39.6184 35.1263 39.5704 38.5111C39.5078 42.9141 39.5068 46.0967 39.5068 46.0967H74.0292C74.2879 46.0967 74.544 46.0522 74.7829 45.9659C75.0219 45.8795 75.239 45.7529 75.4219 45.5933C75.6048 45.4338 75.7499 45.2443 75.8488 45.0358C75.9478 44.8273 75.9988 44.6038 75.9988 44.3781V39.2412C75.9988 39.0155 75.9478 38.792 75.8488 38.5835C75.7499 38.375 75.6048 38.1855 75.4219 38.0259C75.239 37.8664 75.0219 37.7398 74.7829 37.6534C74.544 37.567 74.2879 37.5226 74.0292 37.5226H70.587V36.4317C70.587 36.302 70.5577 36.1736 70.5008 36.0539C70.444 35.9341 70.3606 35.8252 70.2556 35.7336C70.1505 35.6419 70.0258 35.5692 69.8885 35.5196C69.7513 35.4699 69.6041 35.4444 69.4555 35.4444H62.9052C62.7566 35.4444 62.6095 35.4699 62.4722 35.5196C62.3349 35.5692 62.2102 35.6419 62.1052 35.7336C62.0001 35.8252 61.9168 35.9341 61.8599 36.0539C61.803 36.1736 61.7738 36.302 61.7738 36.4317V37.5226H56.5612L55.7923 31.1455C55.7375 30.6916 55.4921 30.2714 55.1034 29.966C54.7146 29.6606 54.21 29.4916 53.6869 29.4916H42.8314C42.3655 29.4916 41.8372 29.7938 41.6676 30.1724Z" fill="#0074E4"/>
<path d="M55.0252 45.4702H43.3992V48.2988H55.0252V45.4702Z" fill="#0074E4"/>
<path d="M43.8289 29.8718C43.8289 29.8718 42.0081 24.502 39.6164 22.7912C37.2247 21.0804 19.9071 7.9994 19.9071 7.9994L6.52228 24.7952L11.6664 33.5483C11.6664 33.5483 1.11722 33.5936 0.115788 29.679C-0.885662 25.7644 4.93834 23.3415 4.93834 23.3415L18.3927 0.548683L21.8716 0L22.9252 1.22569L21.0397 2.76092L20.9217 5.87328C20.9217 5.87328 42.7933 16.7667 45.1985 18.766C47.6037 20.7653 49.8623 30.2861 49.8623 30.2861L43.8289 29.8718ZM34.9446 48.662H34.8572V48.6655C32.3173 48.7799 30.3251 50.6102 30.325 52.8294C30.325 55.0488 32.3172 56.8792 34.8572 56.9936V56.9998H66.4367V56.9958C68.9973 56.9039 71.0189 55.0658 71.0189 52.8296C71.0187 50.5934 69.0712 48.9757 66.4367 48.6636V48.6621H66.3996C60.7072 48.02 54.8232 47.4337 49.0584 46.8047C44.0733 46.8979 39.476 48.1745 34.9446 48.662Z" fill="#0074E4"/>
<path d="M22.7273 1.05652L22.0168 1.74698L43.2176 18.8439L43.9281 18.1524L22.7273 1.05652ZM16.4705 4.00514L2.10058 20.7035L1.9962 26.518L3.06022 26.5327L3.15899 21.0198L17.3224 4.56241L16.4705 4.00514Z" fill="#0074E4"/>
<path d="M2.46697 20.4861L2.40973 21.4136L8.3303 21.6956L8.38755 20.7681L2.46697 20.4861Z" fill="#0074E4"/>
</svg>
