<svg width="57" height="41" viewBox="0 0 57 41" fill="none" xmlns="http://www.w3.org/2000/svg">
<path d="M3.02353 0H34.6285C38.1307 0 41.4896 1.39127 43.966 3.86775C46.4425 6.34423 47.8338 9.70306 47.8338 13.2053V31.0106H3.02353C2.22164 31.0106 1.45259 30.692 0.885572 30.125C0.31855 29.558 0 28.7889 0 27.987V3.02353C0 2.22164 0.31855 1.45259 0.885572 0.88557C1.45259 0.318549 2.22164 0 3.02353 0Z" fill="#0074E4"/>
<path d="M20.5446 9.89745C20.6954 9.89745 20.84 9.95734 20.9466 10.064C21.0532 10.1706 21.1131 10.3152 21.1131 10.466V14.4973C21.1131 14.6481 21.0532 14.7927 20.9466 14.8994C20.84 15.006 20.6954 15.0659 20.5446 15.0659H8.76059C8.60981 15.0659 8.4652 15.006 8.35858 14.8994C8.25196 14.7927 8.19206 14.6481 8.19206 14.4973V10.466C8.19206 10.3152 8.25196 10.1706 8.35858 10.064C8.4652 9.95734 8.60981 9.89745 8.76059 9.89745H20.5446ZM20.5446 7.31323H8.76059C7.92443 7.31323 7.12252 7.64539 6.53126 8.23665C5.94001 8.8279 5.60785 9.62981 5.60785 10.466V14.4973C5.60785 15.3335 5.94001 16.1354 6.53126 16.7267C7.12252 17.3179 7.92443 17.6501 8.76059 17.6501H20.5446C21.3808 17.6501 22.1827 17.3179 22.7739 16.7267C23.3652 16.1354 23.6973 15.3335 23.6973 14.4973V10.466C23.6973 9.62981 23.3652 8.8279 22.7739 8.23665C22.1827 7.64539 21.3808 7.31323 20.5446 7.31323Z" fill="#F7F7F7"/>
<path d="M34.4454 11.8982C34.5602 11.8982 34.6704 11.9438 34.7516 12.0251C34.8328 12.1063 34.8785 12.2164 34.8785 12.3313V25.9026C34.8785 26.0174 34.8328 26.1276 34.7516 26.2088C34.6704 26.2901 34.5602 26.3357 34.4454 26.3357H31.1866C31.0717 26.3357 30.9616 26.2901 30.8803 26.2088C30.7991 26.1276 30.7535 26.0174 30.7535 25.9026V12.3313C30.7535 12.2164 30.7991 12.1063 30.8803 12.0251C30.9616 11.9438 31.0717 11.8982 31.1866 11.8982H34.4454ZM34.4454 9.83569H31.1866C30.5247 9.83569 29.89 10.0986 29.4219 10.5666C28.9539 11.0347 28.691 11.6694 28.691 12.3313V25.9026C28.691 26.5645 28.9539 27.1992 29.4219 27.6672C29.89 28.1353 30.5247 28.3982 31.1866 28.3982H34.4454C35.1072 28.3982 35.742 28.1353 36.21 27.6672C36.678 27.1992 36.941 26.5645 36.941 25.9026V12.3313C36.941 11.6694 36.678 11.0347 36.21 10.5666C35.742 10.0986 35.1072 9.83569 34.4454 9.83569Z" fill="#F7F7F7"/>
<path d="M16.566 9.02319V17.0232" stroke="#F7F7F7" stroke-width="2.0625" stroke-miterlimit="10"/>
<path d="M28.8134 16.3579H36.566" stroke="#F7F7F7" stroke-width="2.58421" stroke-miterlimit="10"/>
<path d="M15.9447 39.6159C19.5127 39.6159 22.4052 36.7234 22.4052 33.1554C22.4052 29.5873 19.5127 26.6948 15.9447 26.6948C12.3766 26.6948 9.48416 29.5873 9.48416 33.1554C9.48416 36.7234 12.3766 39.6159 15.9447 39.6159Z" fill="#0074E4" stroke="#F7F7F7" stroke-width="2.58421" stroke-miterlimit="10"/>
<path d="M45.566 26.0232H55.566" stroke="#0074E4" stroke-width="2.58421" stroke-miterlimit="10" stroke-linecap="round"/>
<path d="M50.566 27.0232V37.0232" stroke="#0074E4" stroke-width="2.58421" stroke-miterlimit="10" stroke-linecap="round"/>
</svg>
