<svg width="66" height="37" viewBox="0 0 66 37" fill="none" xmlns="http://www.w3.org/2000/svg">
<path d="M28.5924 31.5857C28.5924 34.4404 26.179 36.7715 23.2363 36.7715C20.2807 36.7715 17.8672 34.4404 17.8672 31.5857C17.8672 28.7311 20.2807 26.4 23.2363 26.4C26.179 26.4 28.5924 28.7311 28.5924 31.5857ZM59.4 31.5857C59.4 34.4404 56.9865 36.7715 54.0309 36.7715C51.0754 36.7715 48.6748 34.4404 48.6748 31.5857C48.6748 28.7311 51.0754 26.4 54.0309 26.4C56.9865 26.4 59.4 28.7311 59.4 31.5857ZM17.3252 31.5857C17.3252 34.4404 14.9246 36.7715 11.969 36.7715C9.01347 36.7715 6.59998 34.4404 6.59998 31.5857C6.59998 28.7311 9.01347 26.4 11.969 26.4C14.9246 26.4 17.3252 28.7311 17.3252 31.5857Z" fill="#0074E4"/>
<path d="M63.9059 27.3609C63.6253 27.1186 63.4595 26.7869 63.4595 26.417V22.6796C63.4595 21.0596 62.4263 19.631 60.8956 19.108L56.6352 17.6666C56.3546 17.5773 56.1122 17.3605 55.9974 17.0799L53.7014 11.5694C52.6554 9.06929 50.2191 7.44932 47.5149 7.44932H43.8285C41.9151 7.44932 40.3717 9.00551 40.3717 10.9061V21.978H38.4839V3.91599C38.4839 1.76028 36.7236 0 34.5679 0H3.91599C1.74753 0 0 1.76028 0 3.91599C0 5.62525 0 27.8839 0.0127557 30.0269C0.0127557 32.1826 1.77304 33.9429 3.92875 33.9429H4.17111C4.08182 33.4709 4.03079 32.9862 4.03079 32.4887C4.03079 28.0625 7.62789 24.4654 12.0541 24.4654C14.2226 24.4654 16.1742 25.32 17.6156 26.7231C19.057 25.32 21.0214 24.4654 23.1898 24.4654C27.616 24.4654 31.2131 28.0625 31.2131 32.4887C31.2131 32.9862 31.1621 33.4709 31.0728 33.9429H45.7419C45.6526 33.4709 45.6015 32.9862 45.6015 32.4887C45.6015 28.0625 49.1986 24.4654 53.6249 24.4654C58.0511 24.4654 61.6482 28.0625 61.6482 32.4887C61.6482 32.9862 61.5972 33.4709 61.5079 33.9429H61.763C63.7146 33.9429 65.3091 32.3612 65.3091 30.3968C65.3091 29.2233 64.7988 28.1135 63.9059 27.3609ZM43.0887 17.2584V10.8933C43.0887 10.4852 43.4203 10.1535 43.8285 10.1535H47.5149C49.1221 10.1535 50.5763 11.1102 51.2013 12.6026L53.1529 17.2457L43.0887 17.2584Z" fill="#0074E4"/>
</svg>
