<svg width="24" height="24" viewBox="0 0 24 24" fill="none" xmlns="http://www.w3.org/2000/svg">
<path d="M10.6753 2.49425C11.2392 1.43238 12.7608 1.43238 13.3247 2.49425L15.3383 6.28544C15.5551 6.69366 15.948 6.97912 16.4033 7.05917L20.6311 7.80265C21.8153 8.01089 22.2855 9.45796 21.4499 10.3225L18.4665 13.409C18.1452 13.7414 17.9952 14.2033 18.0597 14.661L18.6591 18.9116C18.827 20.1022 17.596 20.9965 16.5156 20.469L12.6582 18.5854C12.2428 18.3826 11.7572 18.3826 11.3418 18.5854L7.4844 20.469C6.40398 20.9965 5.17304 20.1022 5.34092 18.9116L5.94031 14.661C6.00485 14.2033 5.85477 13.7414 5.53353 13.409L2.55013 10.3225C1.71451 9.45796 2.18469 8.01089 3.36887 7.80265L7.59673 7.05917C8.05196 6.97912 8.44487 6.69366 8.66168 6.28544L10.6753 2.49425Z" fill="#6A6A6A"/>
<mask id="mask0_300_285" style="mask-type:alpha" maskUnits="userSpaceOnUse" x="0" y="0" width="12" height="24">
<rect width="12" height="24" fill="#D9D9D9"/>
</mask>
<g mask="url(#mask0_300_285)">
<path d="M10.6753 2.49425C11.2392 1.43238 12.7608 1.43238 13.3247 2.49425L15.3383 6.28544C15.5551 6.69366 15.948 6.97912 16.4033 7.05917L20.6311 7.80265C21.8153 8.01089 22.2855 9.45796 21.4499 10.3225L18.4665 13.409C18.1452 13.7414 17.9952 14.2033 18.0597 14.661L18.6591 18.9116C18.827 20.1022 17.596 20.9965 16.5156 20.469L12.6582 18.5854C12.2428 18.3826 11.7572 18.3826 11.3418 18.5854L7.4844 20.469C6.40398 20.9965 5.17304 20.1022 5.34092 18.9116L5.94031 14.661C6.00485 14.2033 5.85477 13.7414 5.53353 13.409L2.55013 10.3225C1.71451 9.45796 2.18469 8.01089 3.36887 7.80265L7.59673 7.05917C8.05196 6.97912 8.44487 6.69366 8.66168 6.28544L10.6753 2.49425Z" fill="#FABB05"/>
</g>
</svg>
