<svg width="20" height="19" viewBox="0 0 20 19" fill="none" xmlns="http://www.w3.org/2000/svg">
<path d="M8.36492 0.832576C8.91647 -0.277509 10.5 -0.27751 11.0516 0.832574L12.9004 4.55373C13.1189 4.99332 13.5385 5.29824 14.0241 5.37012L18.1345 5.9786C19.3607 6.16012 19.85 7.66617 18.9647 8.53376L15.997 11.442C15.6464 11.7856 15.4861 12.279 15.5678 12.763L16.2593 16.8602C16.4656 18.0825 15.1844 19.0133 14.0857 18.4394L10.4027 16.5156C9.96763 16.2884 9.44888 16.2884 9.01379 16.5156L5.33078 18.4394C4.23208 19.0133 2.95095 18.0825 3.15723 16.8602L3.8487 12.763C3.93039 12.279 3.77009 11.7856 3.4195 11.442L0.451806 8.53376C-0.433509 7.66617 0.0558352 6.16012 1.28203 5.9786L5.39239 5.37012C5.87796 5.29824 6.29764 4.99332 6.51606 4.55373L8.36492 0.832576Z" fill="#FABB05"/>
</svg>
